<svg xmlns="http://www.w3.org/2000/svg" width="452.64" height="325.271" viewBox="0 0 452.64 325.271">
  <defs>
    <style>
      .cls-1, .cls-22, .cls-27 {
        fill: none;
      }

      .cls-1 {
        stroke: #f0f0f0;
        stroke-width: 4.264px;
      }

      .cls-1, .cls-22 {
        stroke-miterlimit: 10;
      }

      .cls-2 {
        fill: #f6f7ff;
      }

      .cls-3 {
        fill: #6f3428;
      }

      .cls-4 {
        fill: #f9b384;
      }

      .cls-12, .cls-5 {
        fill: #e28b6d;
      }

      .cls-20, .cls-5, .cls-9 {
        opacity: 0.6;
      }

      .cls-6 {
        fill: #715ff2;
      }

      .cls-7 {
        fill: #6c5beb;
        opacity: 0.99;
      }

      .cls-19, .cls-8 {
        fill: #ee6f57;
      }

      .cls-8 {
        opacity: 0.3;
      }

      .cls-9 {
        fill: #6857e1;
      }

      .cls-10 {
        fill: #fff;
      }

      .cls-11 {
        fill: #272a2e;
      }

      .cls-13, .cls-20 {
        fill: #102048;
      }

      .cls-14 {
        fill: #708cd5;
      }

      .cls-15 {
        fill: #9697b5;
      }

      .cls-16 {
        fill: #23262b;
      }

      .cls-17 {
        fill: #8770d5;
      }

      .cls-18 {
        fill: #1f3c88;
      }

      .cls-19 {
        opacity: 0.2;
      }

      .cls-21 {
        fill: #d3dfff;
      }

      .cls-22 {
        stroke: #9697b5;
        stroke-width: 6px;
      }

      .cls-23 {
        fill: #c6eae9;
      }

      .cls-24 {
        fill: #8cbfbe;
      }

      .cls-25 {
        fill: #f0f0f0;
      }

      .cls-26 {
        fill: #69d37a;
      }

      .cls-27 {
        stroke: #fff;
        stroke-linecap: round;
        stroke-linejoin: round;
        stroke-width: 2px;
      }
    </style>
  </defs>
  <g id="Group_26370" data-name="Group 26370" transform="translate(-193.345 -289.729)">
    <g id="Group_26368" data-name="Group 26368" transform="translate(-163.009 69.368)">
      <g id="Group_26343" data-name="Group 26343" transform="translate(365.864 336.842)">
        <path id="Path_39876" data-name="Path 39876" class="cls-1" d="M444.218,792.569c-2.438,48.627,30.031,73.595,76.861,79.526,52.532,6.653,106.47-2.322,158.779-6.885,19.705-1.719,39.476-3.011,59.27-2.9,18.652.1,38.843,5.244,57.166,2.4,45.8-7.114,69.407-54.442,62.27-95.719-4.425-25.595-21.046-50.057-50.462-48.429-20.668,1.145-38.991,10.125-58.734,14.99a144.473,144.473,0,0,1-79.127-2.961c-12.735-4.171-24.88-10.085-37.273-15.265-24.683-10.3-50.786-17.734-77.366-18.143S501.86,705.75,480.373,722.1C457.713,739.341,445.579,765.426,444.218,792.569Z" transform="translate(-436.646 -699.159)"/>
        <path id="Path_39877" data-name="Path 39877" class="cls-2" d="M819,873.2c2.425,48.038-29.874,72.7-76.46,78.562-52.257,6.572-105.913-2.294-157.949-6.8-19.6-1.7-39.27-2.975-58.96-2.868-18.554.1-38.64,5.18-56.868,2.369-45.564-7.027-69.044-53.783-61.944-94.56,3.317-19.051,10.641-40.126,27.106-51.7,16.56-11.636,35.823-8.659,53.978-3.607,33.063,9.2,69.086,26.465,104.117,19.709,20.077-3.872,37.575-15.241,56.643-22.045,19.011-6.784,39.323-11.009,59.535-11.324,26.433-.412,53.462,6.493,74.836,22.645C805.575,820.613,817.646,846.382,819,873.2Z" transform="translate(-405.568 -765.119)"/>
      </g>
      <g id="Group_26347" data-name="Group 26347" transform="translate(561.068 328.521)">
        <g id="Group_26344" data-name="Group 26344" transform="translate(0 0)">
          <path id="Path_39878" data-name="Path 39878" class="cls-3" d="M2208.542,1428.5s-18.209,12.841-39.126,1.714l19.563-10.916Z" transform="translate(-2023.766 -1271.81)"/>
          <path id="Path_39879" data-name="Path 39879" class="cls-3" d="M1622.821,1022.783s-17.717,33.226-12.171,43.04l20.173-11.2Z" transform="translate(-1572.111 -951.923)"/>
          <path id="Path_39880" data-name="Path 39880" class="cls-4" d="M1458.791,760.688a61.673,61.673,0,0,1-6.4-5.546,93.179,93.179,0,0,1-11.141-13.614v-.008c-2.275-3.329-4.4-6.807-6.37-10.325a215.682,215.682,0,0,1-13.309-29.073c-3.3-8.776-5.224-15.286-5.735-16.778a1.641,1.641,0,0,0-.124-.313l9.584-27.515c4.631-7.417,7.227,16.654,7.227,16.654,1.277-.75,2.826-2.95,3.741-4.137,1.03-1.343,1.821.783,1.961,1.541.8,4.425-2.761,12.839-2.761,12.839l22.851,33.49a46.441,46.441,0,0,0,4.664,5.777,44.578,44.578,0,0,0,3.445,3.28C1468.449,735.571,1468.243,752.176,1458.791,760.688Z" transform="translate(-1415.709 -656.097)"/>
          <path id="Path_39881" data-name="Path 39881" class="cls-5" d="M1611.918,1055.335a61.65,61.65,0,0,1-6.4-5.546c7.172-8.216,12.657-21.862,14.034-28.183,1.088,1.154-1.2-1.03,0,0C1621.576,1030.218,1621.37,1046.822,1611.918,1055.335Z" transform="translate(-1568.836 -950.744)"/>
          <path id="Path_39882" data-name="Path 39882" class="cls-6" d="M1761.389,1108.621c-12.485-2.431-22.324-2.275-30.63-.626a60.873,60.873,0,0,0-8.5,2.34l-2.513,9.007-4.961,17.808-3.222,11.57-2.934,10.507-1.648,5.925h-88.553l14.009-91.338-17.289-7.977a36.875,36.875,0,0,0,3.082-5.7c5.249-11.825,8.067-29.748,9.089-37.338a45.359,45.359,0,0,0,17.124,9.246c7.54,2.151,16.629,4.013,25.133,3.815l.874-.025c19.67-.766,28.446,5.208,28.446,5.208,4.45.882,16.053,5.34,26.18,9.8,4.467,1.953,8.644,3.914,11.809,5.562a33.419,33.419,0,0,1,16.968,21.656Z" transform="translate(-1576.611 -951.933)"/>
          <path id="Path_39883" data-name="Path 39883" class="cls-7" d="M2177.926,1393.607a60.894,60.894,0,0,0-8.5,2.34l5.332-19.126Z" transform="translate(-2023.778 -1237.545)"/>
          <path id="Path_39884" data-name="Path 39884" class="cls-8" d="M1513.079,1038.605c-2.275-3.329-4.057-6.337-8.331-13.923C1511.453,1022.387,1515.461,1032.268,1513.079,1038.605Z" transform="translate(-1487.542 -953.182)"/>
          <path id="Path_39885" data-name="Path 39885" class="cls-9" d="M1753.772,1504.565l-5.923,21.255-3.222,11.57-79.464,6.057-9.032-15.805C1714.228,1526.445,1738.538,1518.165,1753.772,1504.565Z" transform="translate(-1609.672 -1340.604)"/>
          <path id="Path_39886" data-name="Path 39886" class="cls-5" d="M1422.084,785.782c-3.3-8.776-5.224-15.286-5.735-16.778l14.868-9.208C1431.786,768.177,1425.158,780.121,1422.084,785.782Z" transform="translate(-1416.225 -739.757)"/>
          <path id="Path_39887" data-name="Path 39887" class="cls-10" d="M1930.013,1196.966a15.179,15.179,0,0,0,5.181,7.724,19.168,19.168,0,0,0,8.5,3.77,21.437,21.437,0,0,0,9.343-.4,20.136,20.136,0,0,0,4.406-1.734,23.458,23.458,0,0,0,4-2.641l.44.47a20.378,20.378,0,0,1-3.864,3.168,21.452,21.452,0,0,1-4.574,2.117,20.675,20.675,0,0,1-10.045.633,18.9,18.9,0,0,1-9.1-4.319,15.949,15.949,0,0,1-3.233-3.912,14.043,14.043,0,0,1-1.682-4.739Z" transform="translate(-1830.119 -1092.446)"/>
        </g>
        <g id="Group_26346" data-name="Group 26346" transform="translate(99.579 20.679)">
          <path id="Path_39888" data-name="Path 39888" class="cls-4" d="M1991.7,1034.053l-2.464,19.258a14.136,14.136,0,0,1-28.158-1.763,14.709,14.709,0,0,1,.173-2.233l.445-2.818,1.739-10.985,9.79-.5Z" transform="translate(-1955.265 -981.694)"/>
          <path id="Path_39889" data-name="Path 39889" class="cls-11" d="M1942.113,783.735a29.2,29.2,0,0,1,3.116-9.292,19.859,19.859,0,0,1,14.965-10.87c9.723-1.4,22.294-.035,29.14,9.3,7.718,10.528,1.3,31.577-6.97,33.373S1942.113,783.735,1942.113,783.735Z" transform="translate(-1939.968 -763.104)"/>
          <path id="Path_39890" data-name="Path 39890" class="cls-12" d="M1983.478,1042.988c-3.3,3.131-10.919,10.457-21.508,10.317l2.184-13.8,9.79-.5Z" transform="translate(-1955.987 -985.685)"/>
          <path id="Path_39891" data-name="Path 39891" class="cls-4" d="M1972.594,829.494l-1.475,7.672-.363,1.879-1.45,7.549-.832,4.326-1.03,5.34-5.035,3.024a22.361,22.361,0,0,1-3.906,1.92.008.008,0,0,1-.008.008,37.014,37.014,0,0,1-18.508,2.11,7.859,7.859,0,0,1-1.631-.388c-3.89-1.327-5.884-5.422-6.757-10.523a55.483,55.483,0,0,1-.453-12.188,129.707,129.707,0,0,1,2.011-15.69c8.661-7.738,20.486-9.147,29.254-10.861Z" transform="translate(-1931.011 -803.9)"/>
          <path id="Path_39892" data-name="Path 39892" class="cls-11" d="M1942.113,806.649c13.8-10.859,32.38.142,32.38.142s-2.842,17.1,2.652,15.691,11.069-12.845,11.069-12.845l-12.575-18.129-27.508,4.738Z" transform="translate(-1939.968 -786.018)"/>
          <path id="Path_39893" data-name="Path 39893" class="cls-4" d="M2118.971,935.257c2.7-4.747,7.965-6.268,10.793-2.669s2.937,14.927-10.972,12.481Z" transform="translate(-2082.504 -898.232)"/>
          <g id="Group_26345" data-name="Group 26345" transform="translate(0 26.639)">
            <path id="Path_39894" data-name="Path 39894" class="cls-12" d="M1980.047,934.4c-.9,2.42-2.281,4.575-3.184,6.842-.1.274-.239.589-.3.831a1.351,1.351,0,0,0-.072.651.786.786,0,0,0,.25.483,2.216,2.216,0,0,0,.633.374,14.35,14.35,0,0,0,3.574.621l.012.483a9.339,9.339,0,0,1-3.951-.081,2.955,2.955,0,0,1-1.026-.526,1.951,1.951,0,0,1-.676-1.127,2.527,2.527,0,0,1,.08-1.219,7.349,7.349,0,0,1,.34-.953,41.536,41.536,0,0,1,3.891-6.594Z" transform="translate(-1966.709 -927.763)"/>
            <path id="Path_39895" data-name="Path 39895" class="cls-13" d="M2035.138,927.311c-.337,1.141-1.268,1.872-2.078,1.632s-1.193-1.359-.855-2.5,1.268-1.872,2.078-1.632S2035.475,926.17,2035.138,927.311Z" transform="translate(-2012.551 -920.164)"/>
            <ellipse id="Ellipse_2059" data-name="Ellipse 2059" class="cls-13" cx="2.155" cy="1.529" rx="2.155" ry="1.529" transform="translate(4.39 7.651) rotate(-73.521)"/>
            <path id="Path_39896" data-name="Path 39896" class="cls-13" d="M2021.219,906.718a7.626,7.626,0,0,1,2.448-1.577,6.14,6.14,0,0,1,3-.4,6.052,6.052,0,0,1,2.809,1.121,7.587,7.587,0,0,1,1.986,2.133l-.363.319a17.232,17.232,0,0,0-2.2-1.536,6.691,6.691,0,0,0-2.379-.816,6.563,6.563,0,0,0-2.512.183,14.493,14.493,0,0,0-2.505.973Z" transform="translate(-2003.787 -903.973)"/>
            <path id="Path_39897" data-name="Path 39897" class="cls-13" d="M1956.337,903.766a3.347,3.347,0,0,0-2.9-1.581,4.2,4.2,0,0,0-1.667.37,8.791,8.791,0,0,0-1.6.974l-.377-.3a4.172,4.172,0,0,1,1.454-1.624,3.949,3.949,0,0,1,2.191-.648,3.665,3.665,0,0,1,2.2.736,2.9,2.9,0,0,1,1.159,1.924Z" transform="translate(-1946.167 -900.955)"/>
            <path id="Path_39898" data-name="Path 39898" class="cls-10" d="M1972.848,1006.967l8.968.189s-4.972,6.744-8.623.467Z" transform="translate(-1964.763 -986.481)"/>
            <path id="Path_39899" data-name="Path 39899" class="cls-12" d="M2130.836,951.493a6.8,6.8,0,0,1,.419-2.3,5.036,5.036,0,0,1,1.357-2.052,3.472,3.472,0,0,1,2.422-.9,3.611,3.611,0,0,1,2.253.944l-.243.418a4.964,4.964,0,0,0-1.989-.277,3.023,3.023,0,0,0-1.634.738,5.636,5.636,0,0,0-1.207,1.565c-.336.608-.611,1.27-.9,1.955Z" transform="translate(-2092.221 -937.487)"/>
            <circle id="Ellipse_2060" data-name="Ellipse 2060" class="cls-8" cx="6.317" cy="6.317" r="6.317" transform="translate(21.121 10.376)"/>
            <path id="Path_39900" data-name="Path 39900" class="cls-8" d="M1936.03,957.225a6.34,6.34,0,0,1-4.433,6.032,55.483,55.483,0,0,1-.453-12.188A6.319,6.319,0,0,1,1936.03,957.225Z" transform="translate(-1931.011 -941.385)"/>
          </g>
        </g>
      </g>
      <g id="Group_26349" data-name="Group 26349" transform="translate(466.093 326.16)">
        <path id="Path_39901" data-name="Path 39901" class="cls-13" d="M1299.253,846.906s17.986,8.8,14.652,23.41l-11.9,3.33Z" transform="translate(-1226.782 -807.672)"/>
        <path id="Path_39902" data-name="Path 39902" class="cls-4" d="M1299.253,683.111c1.931-1.9,11.828-12.838,11.483-26.507-.262-10.365,4.334-5.684,4.925,1.47,0,0,2.527-14.629,9.5-13.146l-2.048,2.8s2.643-4.954,4.775-3.629.2,5.564.2,5.564,1-3.675,2.823-3.955,3.506,5.477-.583,20.5c0,0,4.431-4.392,6.18-5.134s1.632,10.754-10.785,22.988-21.2,21.7-21.2,21.7Z" transform="translate(-1226.782 -643.877)"/>
        <path id="Path_39903" data-name="Path 39903" class="cls-14" d="M924.23,906.837c.436.675,72.471-59.931,72.471-59.931l14.652,23.41L937.827,956.9Z" transform="translate(-924.23 -807.672)"/>
        <g id="Group_26348" data-name="Group 26348" transform="translate(91.433 0.952)">
          <path id="Path_39904" data-name="Path 39904" class="cls-12" d="M1404.448,649c-.859,1.324-1.653,2.7-2.383,4.1a45.4,45.4,0,0,0-1.969,4.3,35.441,35.441,0,0,0-1.489,4.475l-.3,1.143-.227,1.158c-.194.768-.235,1.557-.383,2.339l-.322-.017a22.7,22.7,0,0,1,.528-4.791,29.282,29.282,0,0,1,1.432-4.61,35.288,35.288,0,0,1,2.117-4.33,28.347,28.347,0,0,1,2.738-3.959Z" transform="translate(-1397.379 -648.803)"/>
          <path id="Path_39905" data-name="Path 39905" class="cls-12" d="M1432.192,673.707c-.239,1.307-.521,2.6-.81,3.9s-.613,2.579-.908,3.87l-.982,3.851c-.345,1.279-.688,2.558-1.072,3.83l-.315-.067c.171-1.321.424-2.626.686-3.928s.576-2.592.89-3.881c.339-1.283.654-2.572,1.027-3.846s.742-2.549,1.173-3.807Z" transform="translate(-1422.167 -668.828)"/>
          <path id="Path_39906" data-name="Path 39906" class="cls-12" d="M1439.38,656.439a54.112,54.112,0,0,1-.4,13.536c-.183,1.118-.376,2.237-.646,3.341-.127.553-.266,1.1-.424,1.65l-.114.411-.052.191a.127.127,0,0,0-.016-.095.135.135,0,0,0-.188-.037l.289-.256q1.267-1.121,2.56-2.217l1.311-1.081c.232-.183.423-.34.7-.539a1.032,1.032,0,0,1,1.591.69l.083.438c.031.293.081.587.085.879a11.709,11.709,0,0,1-.046,1.747,15.822,15.822,0,0,1-.723,3.377,28.472,28.472,0,0,1-2.931,6.167,52.067,52.067,0,0,1-4.013,5.482c-.727.867-1.5,1.689-2.251,2.535l-2.363,2.425-.23-.225,2.261-2.5c.712-.868,1.452-1.712,2.14-2.6a51.622,51.622,0,0,0,3.848-5.491,29.628,29.628,0,0,0,2.795-6.03,15.054,15.054,0,0,0,.667-3.218,7,7,0,0,0,.047-.814,6.866,6.866,0,0,0-.014-.81c0-.271-.053-.534-.082-.8l-.075-.391c-.024-.125-.03-.113-.067-.16a.222.222,0,0,0-.274-.024l-.64.491-1.3,1.059c-.862.717-1.714,1.45-2.56,2.188l-.347.3a.641.641,0,0,1-.995-.685l.06-.216.114-.4c.159-.534.3-1.074.427-1.617.266-1.083.484-2.18.686-3.279a61.238,61.238,0,0,0,.758-6.671,49.545,49.545,0,0,0,.016-6.719Z" transform="translate(-1424.986 -654.963)"/>
        </g>
      </g>
      <g id="Group_26351" data-name="Group 26351" transform="translate(397.566 365.746)">
        <g id="Group_26350" data-name="Group 26350" transform="translate(0 109.64)">
          <path id="Path_39907" data-name="Path 39907" class="cls-15" d="M609.055,1418.658s-24.888-9.817-35.051,8.965c-12.78,23.616,6.422,51.366,6.422,51.366h33.78Z" transform="translate(-569.617 -1416.094)"/>
          <path id="Path_39908" data-name="Path 39908" class="cls-13" d="M621.281,1468.465a13.268,13.268,0,0,0-1.661,2.172,18.063,18.063,0,0,0-1.263,2.435,27.8,27.8,0,0,0-1.671,5.232,42.447,42.447,0,0,0-.852,10.957,53.07,53.07,0,0,0,1.695,10.889,63.467,63.467,0,0,0,3.785,10.393l-.288.144c-.422-.828-.867-1.647-1.245-2.5-.192-.424-.4-.841-.58-1.271l-.546-1.287c-.684-1.734-1.3-3.5-1.82-5.291a48.532,48.532,0,0,1-1.82-11.042,39.876,39.876,0,0,1,.994-11.152,27.745,27.745,0,0,1,1.841-5.307,18.58,18.58,0,0,1,1.393-2.448,12.407,12.407,0,0,1,1.815-2.158Z" transform="translate(-606.205 -1458.158)"/>
        </g>
        <path id="Path_39909" data-name="Path 39909" class="cls-16" d="M775.525,878.568c8.161,4.98,13.8,2.019,15.452-3.356s7.673-25.626-17.512-22.362c0,0-30.864-12.444-43.924,5.915-11.522,16.2-.95,27.393-18.555,40.822-12.276,9.364-26.193,25.817,1.414,53.954l29.941-8.248Z" transform="translate(-671.889 -848.729)"/>
        <path id="Path_39910" data-name="Path 39910" class="cls-16" d="M991.057,1124.658c.61,2.85,7.215,10.228,9.857,13,7.99,8.367,9.752,24.063-13.027,28.86l-12.816-29.853Z" transform="translate(-896.719 -1071.336)"/>
        <path id="Path_39911" data-name="Path 39911" class="cls-4" d="M937.416,1097.7l-2.695,12.4-4.186,19.3-23.362-4.936,5.5-37.849,23.823,10.672Z" transform="translate(-841.942 -1040.649)"/>
        <path id="Path_39912" data-name="Path 39912" class="cls-12" d="M1138.058,1017.088s6.742,7.559,6.505,9.484-6.505,5.371-6.505,5.371Z" transform="translate(-1028.21 -984.554)"/>
        <path id="Path_39913" data-name="Path 39913" class="cls-12" d="M1000.544,1140.295l-2.695,12.4c-7.186-3.824-12.427-13.284-12.427-13.284l14.2.47Z" transform="translate(-905.071 -1083.24)"/>
        <path id="Path_39914" data-name="Path 39914" class="cls-4" d="M967.13,940.356c-.948,7.186-3.337,12.707-8.447,13.2C944.559,954.925,924.23,939.1,924.23,939.1l1.1-28.974,15.36-9.477,24.862,4.615c.3,3.271,1.821,13.276,2.068,23.337A77.711,77.711,0,0,1,967.13,940.356Z" transform="translate(-855.703 -890.619)"/>
        <path id="Path_39915" data-name="Path 39915" class="cls-16" d="M941.072,892.859l-3.065,2.36c-15.979-12.468-12.667,5.493-14.15,11.245s-9.056,4.236-14.965.519l-1.055,8.051-17.758.56-1.03-22.5,17.709-13.844,32.781,6.395Z" transform="translate(-827.321 -873.349)"/>
        <path id="Path_39916" data-name="Path 39916" class="cls-16" d="M869.68,1092.208c8.722-4.679,6.25-16.893,2.855-21.073s-17.824-11.193-19.574-24.354c-.973-7.32,6.427-15.962,6.427-15.962l-15.012-8.055-15.382,24.185,11.605,41.535Z" transform="translate(-778.87 -989.134)"/>
        <path id="Path_39917" data-name="Path 39917" class="cls-17" d="M787.871,1342.049l-73.218.049c-3.2-46.88,8.488-70.852,18.591-82.628a29.078,29.078,0,0,1,25.661-9.889c8.43,1.038,15.748,5.043,23.164,22.5L747.41,1288.2l22.25,39.176a25.766,25.766,0,0,0,9.378,9.51Z" transform="translate(-686.192 -1171.942)"/>
        <path id="Path_39918" data-name="Path 39918" class="cls-18" d="M886.405,1450.326s10.894,43.606,14.932,49.345c4.2,5.974,13.228,4.474,28.957,4.508h0l-19.87-44.269-24.019-9.584" transform="translate(-825.188 -1334.071)"/>
        <path id="Path_39919" data-name="Path 39919" class="cls-17" d="M975.292,1425.033l-3.148,11.586-41.849.267h-3.428l-8.834-5.167a25.766,25.766,0,0,1-9.378-9.51l-22.249-39.176,34.66-16.119c3.725,8.743,7.466,20.873,11.38,37.684a7.392,7.392,0,0,0,4.236,5.093Z" transform="translate(-825.188 -1266.779)"/>
        <path id="Path_39920" data-name="Path 39920" class="cls-4" d="M962.269,1013.73c-1.258-6.981-9.542-7.906-10.984-3.189s-1.09,12.822,9.313,12.342Z" transform="translate(-877.033 -976.909)"/>
        <path id="Path_39921" data-name="Path 39921" class="cls-12" d="M969.826,1025.013l-1.3-1.48a6.222,6.222,0,0,0-1.341-1.17,1.214,1.214,0,0,0-1.284-.108,5.316,5.316,0,0,0-1.316,1.2l-.432-.216a3.4,3.4,0,0,1,1.161-1.9,2.049,2.049,0,0,1,1.265-.423,2.561,2.561,0,0,1,1.23.384,4.968,4.968,0,0,1,1.552,1.585,7.411,7.411,0,0,1,.885,1.892Z" transform="translate(-887.914 -987.643)"/>
        <path id="Path_39922" data-name="Path 39922" class="cls-19" d="M1115.126,1058.42c-.354.074-7-1.833-7-8.089a6.353,6.353,0,0,1,6.259-6.185,5.614,5.614,0,0,1,1.59.223C1116.077,1048.424,1115.992,1054.5,1115.126,1058.42Z" transform="translate(-1004.065 -1006.384)"/>
      </g>
      <g id="Group_26352" data-name="Group 26352" transform="translate(542.223 465.435)">
        <path id="Path_39923" data-name="Path 39923" class="cls-18" d="M1405.29,1435.465h-87.1l16.453-70.866h87.1Z" transform="translate(-1318.192 -1364.599)"/>
        <path id="Path_39924" data-name="Path 39924" class="cls-20" d="M1405.29,1435.465l16.453-70.866c-24.9,57.609-61.889,63.994-103.551,70.866" transform="translate(-1318.192 -1364.599)"/>
        <ellipse id="Ellipse_2061" data-name="Ellipse 2061" class="cls-10" cx="6.209" cy="5.225" rx="6.209" ry="5.225" transform="translate(44.556 39.139) rotate(-67.25)"/>
      </g>
      <g id="Group_26353" data-name="Group 26353" transform="translate(615.555 483.363)">
        <path id="Path_39925" data-name="Path 39925" class="cls-4" d="M1819.388,1457.9l-.264,7.2-1.186,32.278v.042a16.425,16.425,0,0,1-6.444,12.4H1775.2l-75.8.255c-1.351,0-2.736-3.148-.734-4.705,4.425-3.461,11.356-7.268,16.176-10.35a13.489,13.489,0,0,1,8.966-2.036c5.216.667,12.74,3.313,22.1.552a37.668,37.668,0,0,1,4.936-1.1l30.506-4.689,12.007-1.846.338-20.338.107-6.156c1.146-.3,2.316-.577,3.519-.816A71.566,71.566,0,0,1,1819.388,1457.9Z" transform="translate(-1697.666 -1457.372)"/>
        <path id="Path_39926" data-name="Path 39926" class="cls-5" d="M2220.766,1457.9l-.264,7.2c-4.433-1.558-21.557-6.428-25.315-5.694h0c1.145-.3,2.315-.577,3.519-.816A71.564,71.564,0,0,1,2220.766,1457.9Z" transform="translate(-2099.044 -1457.372)"/>
        <path id="Path_39927" data-name="Path 39927" class="cls-8" d="M2247.113,1663.042v.041a16.424,16.424,0,0,1-6.444,12.4h-11.026C2231.571,1664.88,2239.606,1661.584,2247.113,1663.042Z" transform="translate(-2126.842 -1623.034)"/>
        <path id="Path_39928" data-name="Path 39928" class="cls-12" d="M2169.031,1602.034a15.755,15.755,0,0,1,4.046-1.123,16.186,16.186,0,0,1,4.229-.057,16.623,16.623,0,0,1,4.113.973,13.845,13.845,0,0,1,3.7,2.01l-.267.4a26.218,26.218,0,0,0-3.776-1.381,23.683,23.683,0,0,0-3.914-.782,21.415,21.415,0,0,0-3.984-.115,29.109,29.109,0,0,0-4,.534Z" transform="translate(-2077.943 -1573.037)"/>
      </g>
      <g id="Group_26354" data-name="Group 26354" transform="translate(357.058 535.886)">
        <rect id="Rectangle_5597" data-name="Rectangle 5597" class="cls-21" width="439.848" height="9.746" transform="translate(0 0)"/>
        <line id="Line_65" data-name="Line 65" class="cls-22" x2="439.848" transform="translate(0 0.017)"/>
      </g>
      <g id="Group_26356" data-name="Group 26356" transform="translate(356.354 336.669)">
        <path id="Path_39929" data-name="Path 39929" class="cls-23" d="M422.882,725.7a33.515,33.515,0,1,0-14.5,34.114l11.6,5.058L414.4,754.716A33.49,33.49,0,0,0,422.882,725.7Z" transform="translate(-356.354 -698.262)"/>
        <g id="Group_26355" data-name="Group 26355" transform="translate(13.559 17.008)">
          <path id="Path_39930" data-name="Path 39930" class="cls-10" d="M435.673,816.242V806.037l-.6.295a4.389,4.389,0,0,1-1.967.457,4.465,4.465,0,1,1,1.969-8.477l.593.289v-10.2h8.838a5.212,5.212,0,0,0-.209,1.469,5.292,5.292,0,1,0,10.584,0,5.206,5.206,0,0,0-.209-1.469h8.838v8.92a5.224,5.224,0,0,0-1.737-.291,5.289,5.289,0,1,0,1.737,10.282v8.925Z" transform="translate(-428.237 -787.993)"/>
          <path id="Path_39931" data-name="Path 39931" class="cls-24" d="M461.383,787.1v7.958a5.7,5.7,0,1,0-1.326,11.249,5.664,5.664,0,0,0,1.326-.158v7.963H434.365V803.652l-1.19.59a3.98,3.98,0,0,1-1.784.414,4.053,4.053,0,1,1,1.788-7.7l1.185.578V787.1h7.9a5.7,5.7,0,1,0,11.211,0h7.9m.824-.824h-9.835a4.779,4.779,0,0,1,.382,1.881,4.88,4.88,0,0,1-9.76,0,4.782,4.782,0,0,1,.381-1.881h-9.835v9.948a4.878,4.878,0,1,0-2.15,9.26,4.81,4.81,0,0,0,2.15-.5v9.953h28.666v-9.958a4.8,4.8,0,0,1-2.15.505,4.877,4.877,0,1,1,0-9.754,4.793,4.793,0,0,1,2.15.5v-9.953Z" transform="translate(-426.517 -786.273)"/>
        </g>
      </g>
      <g id="Group_26358" data-name="Group 26358" transform="translate(741.909 332.99)">
        <path id="Path_39932" data-name="Path 39932" class="cls-21" d="M2351.585,710.743a33.515,33.515,0,1,1,18.573,32.079l-10.9,6.443,4.3-10.762A33.489,33.489,0,0,1,2351.585,710.743Z" transform="translate(-2351.523 -679.223)"/>
        <g id="Group_26357" data-name="Group 26357" transform="translate(13.14 12.92)">
          <path id="Path_39933" data-name="Path 39933" class="cls-10" d="M2447.241,782.462a5.264,5.264,0,0,0-9.5,0h-9.2v-10.2l-.56.28a4.379,4.379,0,0,1-1.977.464,4.491,4.491,0,1,1,0-8.981,4.379,4.379,0,0,1,1.977.459l.56.28V754.574h9.886l-.18-.514a4.491,4.491,0,1,1,8.477,0l-.181.514h9.886v27.888Z" transform="translate(-2421.131 -747.695)"/>
          <path id="Path_39934" data-name="Path 39934" class="cls-14" d="M2440.874,746.855a4.107,4.107,0,0,1,3.876,5.463l-.361,1.029h10.045v27.115h-8.568a5.651,5.651,0,0,0-9.974,0h-8.572V770.026l-1.119.559a4,4,0,0,1-1.8.424,4.1,4.1,0,1,1,0-8.208,4,4,0,0,1,1.8.418l1.119.559V753.347h10.045l-.361-1.029a4.107,4.107,0,0,1,3.871-5.463m0-.773a4.88,4.88,0,0,0-4.6,6.492h-9.728v9.953a4.8,4.8,0,0,0-2.15-.5,4.877,4.877,0,1,0,0,9.754,4.8,4.8,0,0,0,2.15-.505v9.958h9.835a4.876,4.876,0,0,1,9,0h9.83V752.574h-9.728a4.879,4.879,0,0,0-4.605-6.492Z" transform="translate(-2419.517 -746.082)"/>
        </g>
      </g>
      <g id="Group_26364" data-name="Group 26364" transform="translate(634 289.012)">
        <g id="Group_26362" data-name="Group 26362" transform="translate(0 8.25)">
          <path id="Path_39937" data-name="Path 39937" class="cls-25" d="M1828.72,515.33v-6.382h-3.046a14.775,14.775,0,0,0-2.094-4.958l2.183-2.182-4.513-4.513-2.236,2.236a14.764,14.764,0,0,0-4.9-1.956v-3.238h-6.382v3.35a14.777,14.777,0,0,0-4.711,2.037l-2.429-2.429-4.513,4.513,2.483,2.483a14.77,14.77,0,0,0-1.9,4.657h-3.54v6.382h3.54a14.77,14.77,0,0,0,1.9,4.657l-2.483,2.483,4.513,4.513,2.429-2.429a14.78,14.78,0,0,0,4.711,2.037v3.35h6.382V526.7a14.76,14.76,0,0,0,4.9-1.956l2.236,2.236,4.513-4.513-2.183-2.183a14.774,14.774,0,0,0,2.094-4.958Z" transform="translate(-1793.118 -494.338)"/>
          <circle id="Ellipse_2063" data-name="Ellipse 2063" class="cls-10" cx="9.961" cy="9.961" r="9.961" transform="translate(3.714 17.801) rotate(-45)"/>
        </g>
        <g id="Group_26363" data-name="Group 26363" transform="translate(43.517 0)">
          <path id="Path_39938" data-name="Path 39938" class="cls-25" d="M2042.822,470.818l1.434-4.394-2.1-.685a10.693,10.693,0,0,0-.328-3.884l1.993-1.012-2.093-4.121-2.042,1.037a10.694,10.694,0,0,0-2.937-2.449l.728-2.229-4.394-1.434-.753,2.306a10.706,10.706,0,0,0-3.7.344l-1.127-2.219-4.121,2.093,1.152,2.268a10.691,10.691,0,0,0-2.356,2.779l-2.437-.8-1.434,4.394,2.437.8a10.7,10.7,0,0,0,.262,3.633l-2.268,1.152,2.093,4.121,2.219-1.127a10.7,10.7,0,0,0,2.785,2.461l-.753,2.306,4.394,1.434.728-2.229a10.694,10.694,0,0,0,3.816-.245l1.037,2.042,4.121-2.093-1.012-1.993a10.7,10.7,0,0,0,2.556-2.943Z" transform="translate(-2018.31 -451.647)"/>
          <circle id="Ellipse_2064" data-name="Ellipse 2064" class="cls-10" cx="7.215" cy="7.215" r="7.215" transform="translate(3.49 16.738) rotate(-66.652)"/>
        </g>
      </g>
      <g id="Group_26367" data-name="Group 26367" transform="translate(443.093 290.187)">
        <g id="Group_26365" data-name="Group 26365" transform="translate(29.279 4.249)">
          <path id="Path_39939" data-name="Path 39939" class="cls-25" d="M982.8,506.322l3.218-4.394-2.1-1.536a12.613,12.613,0,0,0,1.058-4.47l2.6-.4-.832-5.383-2.668.412a12.6,12.6,0,0,0-2.39-3.819l1.633-2.23-4.394-3.218-1.689,2.307a12.61,12.61,0,0,0-4.271-.973l-.448-2.9-5.383.831.458,2.962a12.607,12.607,0,0,0-3.657,2.248l-2.437-1.785-3.218,4.394,2.437,1.785a12.608,12.608,0,0,0-1.039,4.165l-2.962.458.832,5.383,2.9-.448a12.612,12.612,0,0,0,2.216,3.778l-1.689,2.307,4.394,3.218,1.633-2.23a12.6,12.6,0,0,0,4.363,1.126l.412,2.668,5.383-.832-.4-2.6a12.61,12.61,0,0,0,3.942-2.357Z" transform="translate(-956.726 -479.718)"/>
          <circle id="Ellipse_2065" data-name="Ellipse 2065" class="cls-10" cx="8.502" cy="8.502" r="8.502" transform="translate(6.55 23.535) rotate(-87.385)"/>
        </g>
        <g id="Group_26366" data-name="Group 26366" transform="translate(0)">
          <path id="Path_39940" data-name="Path 39940" class="cls-25" d="M821.209,478.992l3.2-2.3-1.1-1.529a9.132,9.132,0,0,0,1.733-2.84l1.883.308.637-3.893-1.929-.316a9.125,9.125,0,0,0-.787-3.167l1.625-1.168-2.3-3.2-1.681,1.209a9.13,9.13,0,0,0-2.722-1.63l.343-2.1-3.893-.637-.351,2.142a9.122,9.122,0,0,0-3.023.726l-1.277-1.777-3.2,2.3,1.277,1.777a9.132,9.132,0,0,0-1.651,2.634l-2.142-.351-.637,3.893,2.1.343a9.133,9.133,0,0,0,.677,3.1l-1.681,1.208,2.3,3.2,1.625-1.168a9.133,9.133,0,0,0,2.751,1.756l-.316,1.929,3.893.637.308-1.883a9.135,9.135,0,0,0,3.244-.737Z" transform="translate(-805.212 -457.728)"/>
          <circle id="Ellipse_2066" data-name="Ellipse 2066" class="cls-10" cx="6.157" cy="6.157" r="6.157" transform="translate(3.743 6.644) rotate(-13.625)"/>
        </g>
      </g>
    </g>
    <g id="Group_26369" data-name="Group 26369" transform="translate(-14 29)">
      <path id="Path_39941" data-name="Path 39941" class="cls-26" d="M32.422,0A32.422,32.422,0,1,1,0,32.422,32.422,32.422,0,0,1,32.422,0Z" transform="translate(383.715 260.729)"/>
      <path id="Path_39738" data-name="Path 39738" class="cls-27" d="M100.163,344.051l9.191,6.267,16.814-19.363" transform="translate(302.969 -47.485)"/>
    </g>
  </g>
</svg>
