<svg id="Icon_ionic-ios-mail" data-name="Icon ionic-ios-mail" xmlns="http://www.w3.org/2000/svg" width="14.974" height="10.367" viewBox="0 0 14.974 10.367">
  <defs>
    <style>
      .cls-1 {
        fill: #715ff2;
      }
    </style>
  </defs>
  <path id="Path_39973" data-name="Path 39973" class="cls-1" d="M18.227,10.336l-3.873,3.945a.07.07,0,0,0,0,.1l2.711,2.887a.467.467,0,0,1,0,.662.469.469,0,0,1-.662,0l-2.7-2.876a.074.074,0,0,0-.1,0l-.659.67a2.9,2.9,0,0,1-2.066.871,2.956,2.956,0,0,1-2.109-.9l-.634-.644a.074.074,0,0,0-.1,0l-2.7,2.876a.469.469,0,0,1-.662,0,.467.467,0,0,1,0-.662l2.711-2.887a.077.077,0,0,0,0-.1L3.5,10.336a.071.071,0,0,0-.122.05V18.28a1.155,1.155,0,0,0,1.152,1.152H17.2a1.155,1.155,0,0,0,1.152-1.152V10.386A.072.072,0,0,0,18.227,10.336Z" transform="translate(-3.375 -9.065)"/>
  <path id="Path_39974" data-name="Path 39974" class="cls-1" d="M11.277,14.466a1.957,1.957,0,0,0,1.407-.59l5.648-5.749a1.131,1.131,0,0,0-.713-.252H4.939a1.124,1.124,0,0,0-.713.252l5.648,5.749A1.957,1.957,0,0,0,11.277,14.466Z" transform="translate(-3.79 -7.875)"/>
</svg>
