<svg xmlns="http://www.w3.org/2000/svg" width="13.452" height="10.926" viewBox="0 0 13.452 10.926">
  <defs>
    <style>
      .cls-1 {
        fill: #715ff2;
      }
    </style>
  </defs>
  <path id="Icon_awesome-twitter" data-name="Icon awesome-twitter" class="cls-1" d="M12.069,6.1c.009.119.009.239.009.359a7.79,7.79,0,0,1-7.844,7.844A7.791,7.791,0,0,1,0,13.069a5.7,5.7,0,0,0,.666.034,5.521,5.521,0,0,0,3.423-1.178,2.762,2.762,0,0,1-2.578-1.912,3.477,3.477,0,0,0,.521.043,2.916,2.916,0,0,0,.726-.094A2.757,2.757,0,0,1,.546,7.256V7.222a2.777,2.777,0,0,0,1.246.35A2.761,2.761,0,0,1,.939,3.884,7.837,7.837,0,0,0,6.624,6.769a3.112,3.112,0,0,1-.068-.632,2.76,2.76,0,0,1,4.771-1.886,5.428,5.428,0,0,0,1.75-.666A2.75,2.75,0,0,1,11.864,5.1a5.527,5.527,0,0,0,1.588-.427A5.927,5.927,0,0,1,12.069,6.1Z" transform="translate(0 -3.381)"/>
</svg>
