<svg xmlns="http://www.w3.org/2000/svg" width="62.853" height="65.846" viewBox="0 0 62.853 65.846">
    <defs>
        <clipPath id="clip-path">
            <path id="crop" fill="none" d="M0 0H43.622V39.83H0z" transform="rotate(111.914 21.595 25.415)"/>
        </clipPath>
        <style>
            .cls-3{font-family:Nunito-Black,Nunito;font-weight:800;letter-spacing:.02em;fill:#cdc3ff;font-size:7px}.cls-5{fill:#ece5f7}
        </style>
    </defs>
    <g id="_-e-Bg_image" transform="translate(1 .322)">
        <g id="Group_5_copy_2">
            <text id="_" fill="#9589ff" font-family="Nunito-Black, Nunito" font-size="21px" font-weight="800" letter-spacing="0.02em" opacity="0.2" transform="rotate(18.74 -56.97 65.47)">
                <tspan x="-6.3" y="0">+</tspan>
            </text>
            <text id="_2" class="cls-3" transform="translate(36.459 8.186)">
                <tspan x="-2.1" y="0">+</tspan>
            </text>
            <text id="_3" class="cls-3" transform="translate(2 36.903)">
                <tspan x="-2.1" y="0">+</tspan>
            </text>
            <g id="Vector_Smart_Object_copy_3" clip-path="url(#clip-path)" opacity="0.49" transform="translate(8.62 10.19)">
                <g id="Group_405" transform="translate(-50.339 -32.612)">
                    <path id="Path_113" d="M-70.466-34.12c14.549-2.743 19.293-9.389 28.35-14.4 8.1-4.486 20.11-7.791 29.88-11.8 7.395-3.035 13.678-6.836 14.918-10.785a56.5 56.5 0 0 0-11.656-3.542C-10.905-70.285-18.4-66.3-27.3-63.216c-10.747 3.721-23.652 6.489-34.9 10.005-9.31 2.911-17.65 6.377-28.625 8.348a128.445 128.445 0 0 1-15.137 1.708c-2.664 2.094-4.377 4.31-4.614 6.645a5.558 5.558 0 0 0 .63 3.1c4.608.109 9.225.331 13.823.482 8.708.285 17.88.275 25.657-1.192z" class="cls-5" transform="translate(110.595 74.647)"/>
                    <path id="Path_114" d="M-9.8-34.384c3.041-3.217.209-6.764 1.087-10.155.916-3.539 5.817-6.75 10.808-9.793a70.825 70.825 0 0 0 9.235-6.224 26.437 26.437 0 0 0-7.593-4.85c-1.24 3.949-7.523 7.75-14.918 10.785-9.77 4.01-21.776 7.314-29.88 11.8-9.057 5.014-13.8 11.66-28.35 14.4-7.777 1.467-16.949 1.477-25.651 1.192-4.6-.151-9.215-.373-13.823-.482 2.839 5.632 14.631 10.6 29.348 12.66 2.966.416 6.019.72 9.118.924 8.107-4.595 19.033-8.516 31.828-11.312 11.063-2.413 24.564-4.47 28.791-8.945z" class="cls-5" transform="translate(109.538 68.944)"/>
                    <path id="Path_115" d="M35.741-9.816c15.618-3.713 26.821-9.6 33.551-15.99 7.867-7.464 12.7-18.692 4.039-26.933a70.825 70.825 0 0 1-9.231 6.224c-4.991 3.042-9.892 6.253-10.808 9.793-.878 3.391 1.954 6.939-1.087 10.155-4.23 4.475-17.731 6.532-28.79 8.949C10.616-14.823-.31-10.9-8.417-6.306a155.516 155.516 0 0 0 44.158-3.51z" class="cls-5" transform="translate(47.539 61.127)"/>
                </g>
            </g>
        </g>
    </g>
</svg>
