<svg xmlns="http://www.w3.org/2000/svg" width="15.299" height="16.611" viewBox="0 0 15.299 16.611">
    <path fill="#7966fe" d="M2 16.611a1.971 1.971 0 0 1-2-1.937V3.736A1.972 1.972 0 0 1 2 1.8h.66v-.547a1.257 1.257 0 0 1 2.513 0V1.8h1.29v-.547a1.257 1.257 0 0 1 2.514 0V1.8h1.289v-.547a1.257 1.257 0 0 1 2.514 0V1.8h.52a1.972 1.972 0 0 1 2 1.937v10.937a1.972 1.972 0 0 1-2 1.937zm-.824-1.936a.811.811 0 0 0 .824.8h11.3a.811.811 0 0 0 .823-.8V4.647H1.177zm9.8-13.421v2.231a.551.551 0 1 0 1.1 0V1.253a.551.551 0 1 0-1.1 0zm-3.8 0v2.231a.551.551 0 1 0 1.1 0V1.253a.551.551 0 1 0-1.1 0zm-3.8 0v2.231a.552.552 0 1 0 1.1 0V1.253a.552.552 0 1 0-1.1 0zM10.9 13.5v-1.861h2.162V13.5zm-2.89 0v-1.861h2.164V13.5zm-2.888 0v-1.861h2.163V13.5zm-2.886 0v-1.861H4.4V13.5zm8.664-2.484V9.153h2.162v1.863zm-2.89 0V9.153h2.164v1.863zm-2.888 0V9.153h2.163v1.863zm-2.886 0V9.153H4.4v1.863zM10.9 8.528V6.665h2.162v1.863zm-2.89 0V6.665h2.164v1.863zm-2.888 0V6.665h2.163v1.863zm-2.886 0V6.665H4.4v1.863z"/>
</svg>
