<svg xmlns="http://www.w3.org/2000/svg" width="19" height="19" viewBox="0 0 19 19">
    <path fill="#a392ff" d="M1.583 19A1.583 1.583 0 0 1 0 17.416V3.364a1.582 1.582 0 0 1 1.583-1.582h2.573V.594a.594.594 0 1 1 1.188 0v1.188h3.562V.594a.594.594 0 1 1 1.187 0v1.188h3.563V.594a.594.594 0 1 1 1.188 0v1.188h2.573A1.582 1.582 0 0 1 19 3.364v14.052A1.583 1.583 0 0 1 17.417 19zm-.4-15.636v14.052a.4.4 0 0 0 .4.4h15.834a.4.4 0 0 0 .4-.4V3.364a.4.4 0 0 0-.4-.4h-2.573v1.192a.594.594 0 0 1-1.188 0V2.969h-3.562v1.187a.594.594 0 0 1-1.187 0V2.969H5.344v1.187a.594.594 0 0 1-1.188 0V2.969H1.583a.4.4 0 0 0-.396.395zm11.281 11.48v-1.782h2.373v1.782zm-4.156 0v-1.782h2.374v1.782zm-4.156 0v-1.782h2.381v1.782zm8.312-2.968v-1.782h2.373v1.782zm-4.156 0v-1.782h2.374v1.782zm-4.156 0v-1.782h2.381v1.782zm8.312-2.971V7.124h2.373v1.782zm-4.156 0V7.124h2.374v1.782zm-4.156 0V7.124h2.381v1.782z"/>
</svg>
