<svg xmlns="http://www.w3.org/2000/svg" width="19" height="19.008" viewBox="0 0 19 19.008">
    <path fill="#a392ff" d="M9.5 0a9.5 9.5 0 1 1-6.709 2.783A9.5 9.5 0 0 1 9.5 0zm4.843 8.985a.519.519 0 0 1 0 1.037H9.5a.519.519 0 0 1-.446-.263l-.007-.007-.007-.015V9.73l-.007-.015-.004-.015v-.007l-.007-.015-.007-.007v-.014l-.007-.015v-.007L9 9.62v-.03l-.007-.007V3.316a.508.508 0 0 1 .507-.511.514.514 0 0 1 .519.511v5.669zm1.146-5.471A8.465 8.465 0 1 0 17.978 9.5a8.441 8.441 0 0 0-2.484-5.99z" transform="translate(-.008)"/>
</svg>
