<svg xmlns="http://www.w3.org/2000/svg" id="Forma_1" width="14.905" height="14.917" viewBox="0 0 14.905 14.917">
    <defs>
        <style>
            .cls-1{fill:#fff}
        </style>
    </defs>
    <path id="clock" d="M0 7.459a7.453 7.453 0 1 1 7.452 7.459A7.46 7.46 0 0 1 0 7.459zm1.043 0a6.41 6.41 0 1 0 6.41-6.415 6.422 6.422 0 0 0-6.41 6.415zm6.057.876a.522.522 0 0 1-.528-.528V4.213a.528.528 0 1 1 1.055 0v3.065h1.962a.528.528 0 0 1 0 1.056z" class="cls-1"/>
    <path id="Stroke_Effect" d="M0 7.459a7.453 7.453 0 1 1 7.452 7.459A7.46 7.46 0 0 1 0 7.459zm1.043 0a6.41 6.41 0 1 0 6.41-6.415 6.422 6.422 0 0 0-6.41 6.415zm6.057.876a.522.522 0 0 1-.528-.528V4.213a.528.528 0 1 1 1.055 0v3.065h1.962a.528.528 0 0 1 0 1.056z" class="cls-1"/>
</svg>
