<svg xmlns="http://www.w3.org/2000/svg" xmlns:xlink="http://www.w3.org/1999/xlink" width="37.743" height="37.317" viewBox="0 0 37.743 37.317">
  <defs>
    <linearGradient id="linear-gradient" x1="0.5" x2="0.5" y2="1" gradientUnits="objectBoundingBox">
      <stop offset="0" stop-color="#7966fe"/>
      <stop offset="1" stop-color="#a27cf2"/>
    </linearGradient>
  </defs>
  <g id="share" transform="translate(0 -0.427)">
    <path id="Path_730" data-name="Path 730" d="M4.332,116.8H33.426a4.328,4.328,0,0,0,4.325-4.325v-22.8a1.18,1.18,0,0,0-2.359,0v22.8a1.969,1.969,0,0,1-1.966,1.966H4.332a1.968,1.968,0,0,1-1.966-1.966v-22.8a1.181,1.181,0,0,0-2.359,0v22.8A4.328,4.328,0,0,0,4.332,116.8Zm0,0" transform="translate(-0.008 -79.06)" fill="url(#linear-gradient)"/>
    <path id="Path_731" data-name="Path 731" d="M1.188,25.164a1.18,1.18,0,0,0,1.05-.643l.02-.039A12.906,12.906,0,0,1,13.867,17.3h1.868v5.111a1.179,1.179,0,0,0,2.029.818L27.986,12.615a1.178,1.178,0,0,0,0-1.636L17.764.364a1.179,1.179,0,0,0-2.029.818V6.293h-.393A15.351,15.351,0,0,0,.009,21.626v2.359a1.181,1.181,0,0,0,1.179,1.179ZM16.914,14.943H13.867a15.243,15.243,0,0,0-11.4,5.065A13,13,0,0,1,15.342,8.652h1.573a1.18,1.18,0,0,0,1.179-1.179V4.107L25.5,11.8l-7.405,7.69V16.122a1.18,1.18,0,0,0-1.179-1.179Zm0,0" transform="translate(31.173 0.419) rotate(90)" fill="url(#linear-gradient)"/>
  </g>
</svg>
