<svg xmlns="http://www.w3.org/2000/svg" xmlns:xlink="http://www.w3.org/1999/xlink" width="165.675" height="116.909" xmlns:v="https://vecta.io/nano"><style><![CDATA[.B{fill:#263238}.C{fill:#455a64}.D{fill:#b78876}.E{fill:#a36957}]]></style><path fill="#f5f5f5" d="M0 40.294l34.974-23.4L69.43 68.392l-34.974 23.4z"/><g fill="#e0e0e0"><path d="M51.363 65.963l-.4 2.457-17.39-2.505.4-2.457z"/><path d="M42.606 57.198l2.5.36-2.767 17.122-2.5-.359zM26.587 35.436c.025.037-3.481 2.426-7.829 5.334l-7.92 5.2c-.02-.037 3.48-2.425 7.83-5.335l7.919-5.199zm12.866-3.23c.025.037-5.8 3.98-13.02 8.806l-13.111 8.672c-.025-.037 5.8-3.979 13.021-8.807l13.11-8.671zm2.578 3.856c.025.037-5.8 3.98-13.019 8.806L15.901 53.54c-.025-.037 5.8-3.979 13.021-8.807l13.109-8.671zm2.578 3.856c.025.037-5.8 3.98-13.019 8.806l-13.111 8.672c-.025-.037 5.8-3.979 13.021-8.807l13.109-8.671zm2.58 3.855c.025.037-5.8 3.98-13.02 8.806l-13.111 8.672c-.025-.037 5.8-3.979 13.021-8.806l13.11-8.672z"/></g><path fill="#f5f5f5" d="M73.423 1.639l32.063 17.159-25.265 47.212-32.063-17.159z"/><g fill="#e0e0e0"><path d="M74.748 51.219l-2.034.7-5.162-14.271 2.034-.7z"/><path d="M77.866 40.981l.741 2.048-14.173 4.854-.741-2.048zm10.07-21.056c-.025.047-3.276-1.643-7.261-3.774l-7.171-3.944c.029-.044 3.276 1.643 7.262 3.774l7.17 3.944zm7.692 8.491c-.025.047-5.406-2.782-12.017-6.318L71.684 15.61c.026-.047 5.4 2.781 12.018 6.318l11.926 6.488zm-1.889 3.533c-.025.047-5.406-2.782-12.017-6.318l-11.927-6.488c.025-.047 5.4 2.781 12.018 6.318l11.926 6.488zm-1.89 3.533c-.025.047-5.406-2.782-12.017-6.317l-11.927-6.488c.026-.047 5.4 2.781 12.018 6.318l11.926 6.487zm-1.889 3.533c-.025.047-5.406-2.782-12.017-6.318l-11.928-6.488c.025-.047 5.4 2.781 12.018 6.318l11.927 6.488z"/></g><path d="M144.254 11.657c-.917.211-1.363 1.266-1.45 2.2.037.94-.085 1.88-.361 2.78-.443.962-1.5 1.671-1.536 2.729-.021.645.362 1.252.343 1.9-.03 1.06-1.111 1.861-1.168 2.919-.041.762.467 1.494.345 2.248-.203.557-.452 1.095-.745 1.61-.254 1.193.312 2.409 1.387 2.984 1.135.714 2.527.89 3.804.482s2.309-1.359 2.82-2.599c.442-1.393.55-2.871.313-4.314q-.564-6.784-.837-13.587" class="B"/><path d="M141.593 27.616a1.1 1.1 0 0 0 .419-.5 1.77 1.77 0 0 0 .107-.761c-.034-.345-.11-.684-.227-1.01a2.88 2.88 0 0 1-.163-1.278c.134-.482.39-.921.743-1.276.169-.193.31-.409.421-.64s.127-.501.049-.748c-.161-.509-.66-.884-.889-1.472a1.59 1.59 0 0 1-.05-.91 3.7 3.7 0 0 1 .3-.816 6.99 6.99 0 0 0 .62-1.467c.219-.989.117-1.933.266-2.708.083-.622.358-1.203.788-1.661.123-.117.261-.216.412-.294a.71.71 0 0 1 .165-.062 2.52 2.52 0 0 0-.532.4c-.399.461-.65 1.031-.72 1.636a10.21 10.21 0 0 0-.087 1.26c-.002.491-.051.981-.147 1.463a6.96 6.96 0 0 1-.621 1.5 2.05 2.05 0 0 0-.242 1.6c.2.531.7.908.889 1.481a1.19 1.19 0 0 1-.058.857c-.118.243-.268.469-.447.672-.724.582-.965 1.58-.586 2.428a4.16 4.16 0 0 1 .208 1.037 1.78 1.78 0 0 1-.139.79.95.95 0 0 1-.32.393c-.048.038-.101.067-.159.086z" class="C"/><path d="M139.139 35.007l-2.814 8.113-11.736.629-1.962 4.355 12.253 1.24a4.63 4.63 0 0 0 6.127-2.717l3.27-9.127zm24.275 76.488l-8.783-28.2c-.165-.8 3.121-20.46 3.535-25.547l-11.621.433v.085l-4.94.274 4.424 55.868h5.348l-.53-18.535a180.52 180.52 0 0 0 8.023 17.876z" class="D"/><g class="E"><path d="M151.064 102.512l-.065-6.21a33.88 33.88 0 0 1-2-5.586c.027-.177 2.065 11.796 2.065 11.796z"/><path d="M148.771 88.062a1.25 1.25 0 0 0-.034.339c-.014.309-.011.618.007.926l.053.639.113.728a12.41 12.41 0 0 0 .437 1.627l1.121 2.836.372.845a1.25 1.25 0 0 0 .159.3 1.28 1.28 0 0 0-.094-.327l-.32-.866-1.069-2.845c-.18-.524-.328-1.058-.445-1.6l-.128-.714-.074-.629-.063-.918c.004-.115-.008-.229-.035-.341z"/></g><path d="M145.925 114.679v-.5l5.478-.239.015 2.072-.338.023c-1.5.088-7.651.341-8.658.04-1.121-.339 3.503-1.396 3.503-1.396z" class="C"/><g class="B"><path d="M151.495 115.884c-.031.007-.062.01-.094.011l-.269.017-.991.046-3.27.069a94.13 94.13 0 0 1-3.271-.041l-.991-.037-.269-.015a.48.48 0 0 1-.094-.01c.031-.003.063-.003.094 0h.27l.991.017 3.27.021 3.269-.05.991-.025h.269a.52.52 0 0 1 .095-.003z"/><path d="M144.153 116.06a1.44 1.44 0 0 0-.526-.85.88.88 0 0 1 .526.85zm1.607-.821c-.016.01-.093-.084-.173-.209s-.132-.234-.117-.244.093.083.172.208.133.238.118.245zm.44-.235c-.012.014-.1-.043-.192-.127s-.161-.163-.149-.177.1.043.193.127.16.164.148.177zm.276-.515a.64.64 0 0 1-.284.037.65.65 0 0 1-.285-.029.64.64 0 0 1 .284-.037.65.65 0 0 1 .285.029z"/><path d="M146.571 114.125a.8.8 0 0 1-.645.051 1.78 1.78 0 0 1 .323-.023 1.76 1.76 0 0 1 .322-.028zm-.999.639a1 1 0 0 1-.35 0 2.05 2.05 0 0 1-.373-.081 1.02 1.02 0 0 1-.214-.087c-.042-.024-.073-.062-.087-.108-.012-.053.009-.108.053-.14a.64.64 0 0 1 .795.185c.054.069.093.148.115.233a.2.2 0 0 1 .01.095.98.98 0 0 0-.161-.3.63.63 0 0 0-.3-.193c-.137-.046-.288-.035-.417.03-.055.041-.033.107.028.143a1.06 1.06 0 0 0 .2.084 2.42 2.42 0 0 0 .361.092l.34.047z"/><path d="M145.483 114.782c-.043-.073-.058-.16-.041-.243a.57.57 0 0 1 .095-.256.35.35 0 0 1 .291-.18.14.14 0 0 1 .109.161c-.008.056-.028.11-.059.157a1.06 1.06 0 0 1-.165.212.5.5 0 0 1-.2.142c-.006-.008.07-.063.166-.174a1.23 1.23 0 0 0 .146-.21c.048-.074.08-.207-.008-.223s-.177.079-.23.149-.083.146-.1.228a1.3 1.3 0 0 0-.004.237zm5.896-.388c0 .012-.156-.014-.4.016-.656.074-1.21.519-1.424 1.143-.082.234-.09.391-.1.389a.31.31 0 0 1 0-.11c.009-.1.028-.198.058-.294.197-.657.779-1.124 1.463-1.175a1.43 1.43 0 0 1 .3.007.31.31 0 0 1 .103.024z"/><path d="M148.755 115.45a4.48 4.48 0 0 1-1.593.009c0-.019.358 0 .8 0l.793-.009zm1.068-.012c.013.013-.029.075-.065.157s-.056.154-.074.153-.028-.086.014-.18.113-.143.125-.13zm.401-.503c.013.013-.022.07-.078.127s-.112.094-.125.081.022-.07.078-.127.112-.093.125-.081zm.575-.23c0 .019-.076.018-.156.047s-.137.071-.152.059.031-.088.13-.122.183-.001.178.016zm.408-.11c.007.017-.025.045-.07.063s-.087.018-.094 0 .025-.045.07-.063.089-.016.094 0z"/></g><path d="M158.762 114.196l-.208-.457 4.902-2.46.862 1.884-.3.159c-1.336.7-6.84 3.446-7.882 3.583-1.162.15 2.626-2.709 2.626-2.709z" class="C"/><g class="B"><path d="M164.334 113.016c-.026.018-.053.034-.081.048l-.238.126-.885.448-2.955 1.4-3 1.3-.919.372-.252.1c-.029.013-.058.023-.089.03.027-.017.055-.031.084-.042l.247-.108.911-.391 2.992-1.32 2.962-1.384.893-.429.244-.115c.028-.014.056-.026.086-.035z"/><path d="M157.709 116.184a1.44 1.44 0 0 0-.828-.56.88.88 0 0 1 .828.56zm1.128-1.408c-.01.015-.119-.038-.243-.119s-.217-.16-.207-.175.119.038.243.12.217.158.207.174zm.305-.394c-.006.017-.108 0-.228-.037s-.214-.083-.208-.1.108 0 .228.037.214.082.208.1zm.042-.584c.008.017-.1.084-.244.15a.64.64 0 0 1-.272.091c-.008-.017.1-.084.244-.151.083-.05.176-.081.272-.09z"/><path d="M159.121 113.428c.012.012-.088.127-.251.215a.55.55 0 0 1-.316.1c.09-.06.185-.112.285-.154.089-.062.183-.116.282-.161zm-.649.99a1.01 1.01 0 0 1-.32.142 2.04 2.04 0 0 1-.373.079 1.01 1.01 0 0 1-.231.008.19.19 0 0 1-.124-.063c-.032-.044-.036-.102-.009-.149a.64.64 0 0 1 .8-.157.62.62 0 0 1 .2.166c.037.049.05.08.047.082a.99.99 0 0 0-.268-.206.63.63 0 0 0-.353-.054c-.144.015-.277.087-.368.2-.034.06.013.111.084.119a1.05 1.05 0 0 0 .214 0 2.38 2.38 0 0 0 .367-.064l.334-.103z"/><path d="M158.397 114.473c-.068-.048-.117-.119-.137-.2a.58.58 0 0 1-.019-.272c.011-.121.083-.228.192-.283.078-.024.261.133.273.192s-.092.028-.1.078a1.07 1.07 0 0 1-.063.261.5.5 0 0 1-.124.212c-.009-.005.038-.086.08-.227a1.22 1.22 0 0 0 .047-.252c.013-.087-.011-.222-.1-.2s-.129.145-.149.231a.58.58 0 0 0 0 .249 1.29 1.29 0 0 0 .1.211zm5.216-2.77c0 .012-.148.051-.361.179-.568.336-.891.969-.83 1.626.021.247.078.393.066.4a.32.32 0 0 1-.045-.1c-.033-.095-.055-.193-.067-.292-.089-.68.25-1.344.853-1.671a1.44 1.44 0 0 1 .276-.117c.034-.014.071-.023.108-.025zm-1.957 2.038a4.47 4.47 0 0 1-1.449.66c-.006-.018.328-.142.727-.325l.722-.335zm.97-.447c.017.007 0 .081.005.17s.012.164-.005.17-.061-.067-.061-.17.045-.177.061-.17z"/><path d="M162.786 112.671c.017.006.009.073-.019.148s-.064.131-.081.125-.008-.072.019-.148.064-.131.081-.125zm.43-.446c0 .018-.062.048-.123.106s-.1.121-.114.116-.008-.093.069-.164.166-.076.168-.058zm.329-.268c.013.013 0 .051-.038.086s-.072.052-.085.04 0-.051.038-.086.072-.053.085-.04z"/></g><g fill="#9697b5"><path d="M157.412 48.497l-.912-11.128 4.686.084a18.64 18.64 0 0 0-.473-5.241c-.396-1.947-1.719-3.577-3.542-4.365v-.03l-.143-.037a13.39 13.39 0 0 0-4.292-1.12l-5.751.066s-4.394-.548-6.825 2.584c-.937 1.206-3.835 9.464-3.835 9.464l6.9 3.325-.657-4.579c.036 1.472.222 2.937.554 4.372.236.586.919 2.406.919 2.406l-.089 5.492z"/><path d="M154.237 35.752l-.854 3.637h8.054l-.53-6.1z"/></g><g class="B"><path d="M161.44 39.389a6 6 0 0 0-1.066-.106l-2.583-.067-2.582.1a5.75 5.75 0 0 0-1.063.131c.356.025.714.023 1.07-.006l2.577-.049 2.577.015c.357.022.714.016 1.07-.018z"/><path d="M153.893 33.261a4.83 4.83 0 0 0-.027.925l.06 2.228.113 2.227c.004.309.037.617.1.92a4.77 4.77 0 0 0 .027-.925l-.06-2.229-.112-2.226a4.78 4.78 0 0 0-.101-.92z"/></g><path d="M146.564 36.411s1.79 13.272 6.822 12.92c0 0 2.265-.027 2.994-1.533v-.593zm7.328-2.368l-.963 6.506.624 1.142 1.027-2.232-.434-.01z" opacity=".3"/><g class="B"><path d="M144.045 44.298a1.36 1.36 0 0 1-.136-.311l-.3-.871a26.46 26.46 0 0 1-.77-2.945c-.199-.997-.327-2.006-.382-3.021l-.019-.923a1.36 1.36 0 0 1 .023-.339c.026 0 .043.48.11 1.253a28.09 28.09 0 0 0 .426 3l.721 2.943.253.885a1.38 1.38 0 0 1 .074.329zm2.035 3.811c-.043.013-.167-.273-.278-.639-.093-.217-.135-.452-.123-.687.043-.013.167.273.278.639.093.217.135.452.123.687z"/><path d="M146.775 48.058c-.235-.625-.246-1.313-.029-1.945l.029 1.945zm-3.407-5.809c-.02.04-1.627-.722-3.588-1.7l-3.516-1.848c.02-.04 1.626.722 3.588 1.7l3.516 1.848z"/></g><path d="M146.198 27.801l.045-3.238a3.3 3.3 0 0 1-2.375-3.052c-.336-2.538.6-8.495.6-8.495h0a7.11 7.11 0 0 1 8.051 2.29h0l-.5 12.806a2.75 2.75 0 0 1-2.975 2.546h0a2.9 2.9 0 0 1-2.846-2.857z" class="D"/><g class="B"><use xlink:href="#B"/><path d="M144.192 17.33c.041.046.3-.138.669-.128s.629.2.67.157c.02-.019-.021-.1-.136-.189-.156-.114-.342-.177-.535-.18a.9.9 0 0 0-.534.157c-.114.084-.154.163-.134.183z"/><use xlink:href="#B" x="3.711" y="0.231"/><path d="M148.005 17.562c.041.046.3-.138.669-.128s.63.2.67.157c.02-.019-.021-.1-.136-.189a.93.93 0 0 0-.535-.18.89.89 0 0 0-.534.157c-.114.083-.154.162-.134.183zm-1.397 2.678a2.4 2.4 0 0 0-.591-.123c-.093-.012-.181-.033-.2-.1-.005-.097.019-.193.07-.275l.295-.7a12.2 12.2 0 0 0 .668-1.845c-.319.573-.592 1.17-.815 1.786q-.148.371-.283.709a.54.54 0 0 0-.058.365c.026.068.081.12.15.141.051.015.104.024.158.026a2.39 2.39 0 0 0 .606.016z"/></g><path d="M146.243 24.562c1.248.051 2.485-.245 3.575-.855-.757 1.191-2.176 1.783-3.555 1.482z" class="E"/><path d="M149.176 16.506c-.075.114-.353.064-.665.007s-.588-.118-.616-.252.291-.306.707-.226.65.362.574.471zm-3.637-.537c-.028.133-.326.182-.67.2s-.645-.007-.686-.137.25-.331.663-.349.722.156.693.286z" class="B"/><path d="M146.614 21.115c-.08-.016-.161.021-.2.093-.047.087-.027.196.049.259s.187.065.264.002.1-.17.054-.258-.148-.131-.243-.103" class="E"/><path d="M146.699 21.152c.017-.015-.059-.1-.218-.07-.098.025-.175.102-.2.2-.034.122.01.253.11.331a.31.31 0 0 0 .351 0c.085-.057.128-.159.112-.26-.032-.164-.154-.19-.157-.168s.042.078.031.175c-.003.048-.031.092-.074.114a.16.16 0 0 1-.158-.007c-.044-.037-.065-.094-.056-.151.008-.049.039-.092.084-.115.086-.05.163-.027.175-.049zm4.597-2.718c-.315.731-1.085 1.294-.978 2.083.069.509.4.984.332 1.494-.08.64-.745 1.084-.839 1.723-.115.783.646 1.392.951 2.123.443 1.064-.124 2.261-.137 3.414a3.66 3.66 0 0 0 3.241 3.56 1.98 1.98 0 0 0 1.883-.768c.206-.551.348-1.123.426-1.706.272-.834 1.067-1.445 1.235-2.307.306-1.57-1.592-2.87-1.467-4.465.157-.664.376-1.312.653-1.936a2.84 2.84 0 0 0-.557-2.523c-.468-.557-1.148-.923-1.547-1.532a6.71 6.71 0 0 1-.639-2.373 5.98 5.98 0 0 0-9.494-3.5 1.94 1.94 0 0 0 1.656 2.4c2.109.343 3.087-.053 3.325.793-.111.708.124 1.426.632 1.931.87.94 1.689.742 1.324 1.589z" class="B"/><g class="C"><path d="M154.667 32.685c-.065.001-.13-.006-.193-.02a2.85 2.85 0 0 1-.537-.145c-.644-.246-1.208-.664-1.632-1.208a4.27 4.27 0 0 1-.694-1.235 4.96 4.96 0 0 1-.283-1.6 6.52 6.52 0 0 1 .225-1.78c.082-.306.182-.606.3-.9a8.98 8.98 0 0 0 .342-.9c.084-.299.084-.615 0-.914a4.97 4.97 0 0 0-.354-.854c-.144-.271-.265-.554-.363-.845s-.119-.599-.065-.9a6.34 6.34 0 0 1 .691-1.468 2.79 2.79 0 0 0 .282-1.328 3.14 3.14 0 0 0-.7-1.839 5.56 5.56 0 0 0-.53-.516c.219.123.415.284.578.475.455.523.723 1.183.762 1.875.025.48-.069.958-.276 1.392-.28.45-.504.933-.666 1.438-.044.579.105 1.157.424 1.642a5.07 5.07 0 0 1 .368.882 1.85 1.85 0 0 1 0 1 8.97 8.97 0 0 1-.349.913 7.67 7.67 0 0 0-.295.883 6.45 6.45 0 0 0-.229 1.737 4.5 4.5 0 0 0 .918 2.767c.406.537.946.958 1.565 1.221.442.182.711.212.711.227z"/><path d="M154.353 16.953a2.21 2.21 0 0 1-.465.069 4.84 4.84 0 0 1-1.284-.034 2.44 2.44 0 0 1-1.62-.983c-.179-.333-.321-.684-.425-1.047a1.73 1.73 0 0 0-.71-.876 5.06 5.06 0 0 0-2.187-.571 3.8 3.8 0 0 1-1.817-.566 1.8 1.8 0 0 1-.744-1.041 1.12 1.12 0 0 1-.024-.351.36.36 0 0 1 .025-.12 2.3 2.3 0 0 0 .06.456 1.8 1.8 0 0 0 .748.962 3.79 3.79 0 0 0 1.769.511c.787.016 1.56.216 2.257.583.356.223.628.559.77.955a5.39 5.39 0 0 0 .4 1.023c.361.504.905.846 1.516.951a5.42 5.42 0 0 0 1.259.084c.157-.013.315-.015.472-.005zm-.775-2.539a.95.95 0 0 1-.365.054c-.583.004-1.144-.22-1.564-.624a2.96 2.96 0 0 1-.484-.645c-.225-.547-.624-1.003-1.135-1.3a3.73 3.73 0 0 0-1.747-.154 5.34 5.34 0 0 1-1.491-.012c-.339-.05-.657-.192-.92-.412a1.06 1.06 0 0 1-.183-.206c-.035-.052-.051-.081-.046-.084s.087.1.27.241a1.91 1.91 0 0 0 .9.348 5.62 5.62 0 0 0 1.459-.023c.612-.1 1.239-.047 1.826.154a1.8 1.8 0 0 1 .744.618c.165.244.316.496.454.756a2.92 2.92 0 0 0 .449.625c.157.161.338.296.536.4.289.152.608.241.934.261l.363.003zm2.015 17.599c-.016-.007.084-.208.2-.591.157-.543.227-1.107.208-1.671-.024-.836-.253-1.653-.665-2.381-.228-.408-.575-.772-.857-1.221a2.2 2.2 0 0 1-.314-.753 1.7 1.7 0 0 1 .069-.841c.225-.48.41-.977.555-1.487a2.05 2.05 0 0 0-.4-1.352 6.22 6.22 0 0 1-.334-.62 2.23 2.23 0 0 1-.177-.651 5.77 5.77 0 0 1 .035-1.189 3.15 3.15 0 0 0-.148-1.657 1.5 1.5 0 0 0-.368-.488s.014 0 .038.018a.63.63 0 0 1 .1.071 1.17 1.17 0 0 1 .288.371 3.09 3.09 0 0 1 .205 1.694 5.85 5.85 0 0 0-.016 1.163 2.95 2.95 0 0 0 .505 1.211 4.12 4.12 0 0 1 .339.663 1.57 1.57 0 0 1 .094.787 9.32 9.32 0 0 1-.558 1.514c-.085.245-.108.507-.065.763a2.06 2.06 0 0 0 .29.7c.268.431.616.8.851 1.23a5.15 5.15 0 0 1 .65 2.453 5.04 5.04 0 0 1-.262 1.693 3.77 3.77 0 0 1-.18.431.61.61 0 0 1-.083.14z"/></g><path d="M142.893 90.104s-2.1-19.9-2.22-27.259 3.307-14.612 3.307-14.612l13.432-.568s2.655 7.463 2.7 10.6c.093 6.091-1.618 12.107-1.421 16.939l.449 14.9" class="B"/><path d="M159.592 65.632c-.069.061-.142.116-.219.166l-.122.086c-.042.036-.083.081-.13.126a2 2 0 0 0-.3.335c-.52.812-.877 1.716-1.051 2.664-.155.655-.383 1.29-.68 1.894a3.41 3.41 0 0 1-.3.471l-.175.227-.207.207a3.34 3.34 0 0 1-1.01.648c-.752.33-1.6.486-2.376.875-.792.427-1.403 1.125-1.724 1.965-.378.845-.608 1.732-.923 2.56a4.64 4.64 0 0 1-1.4 2.127 3.85 3.85 0 0 1-2.2.689l-1.993.112a3.15 3.15 0 0 0-1.5.567c-.325.252-.568.594-.7.984a1.48 1.48 0 0 0-.052.764c.035.175.084.259.073.263a.8.8 0 0 1-.1-.256 1.45 1.45 0 0 1 .023-.791c.125-.407.369-.768.7-1.036.452-.335.984-.545 1.543-.61.612-.1 1.289-.085 2-.133a3.73 3.73 0 0 0 2.116-.673 4.51 4.51 0 0 0 1.344-2.064l.924-2.57a3.9 3.9 0 0 1 1.8-2.04c.807-.4 1.656-.552 2.388-.87.359-.145.688-.353.973-.615l.2-.2c.062-.068.113-.145.17-.216a3.3 3.3 0 0 0 .291-.453 9 9 0 0 0 .688-1.86 7.24 7.24 0 0 1 1.112-2.673 1.98 1.98 0 0 1 .316-.331l.138-.122.129-.081a1.76 1.76 0 0 1 .234-.136zm.083-9.209a1.59 1.59 0 0 1 .017.267 3.31 3.31 0 0 1-.093.762 4.93 4.93 0 0 1-1.517 2.346c-.481.439-1.009.824-1.573 1.149l-1.946 1.082c-.717.385-1.386.855-1.991 1.4a7.69 7.69 0 0 0-1.508 2.119 19.68 19.68 0 0 1-1.308 2.3 5.5 5.5 0 0 1-.853.943c-.311.263-.652.489-1.014.675a12.56 12.56 0 0 1-2.087.8l-1.832.616a7.13 7.13 0 0 0-1.4.748c-.328.228-.623.5-.877.809a4.2 4.2 0 0 0-.526.875 1.65 1.65 0 0 1 .087-.253 3.09 3.09 0 0 1 .39-.661 4.26 4.26 0 0 1 .874-.843 7.07 7.07 0 0 1 1.405-.781c.548-.237 1.173-.427 1.836-.639.708-.206 1.397-.474 2.058-.8a5.24 5.24 0 0 0 .982-.66c.309-.273.586-.581.824-.918a19.75 19.75 0 0 0 1.294-2.287c.387-.802.909-1.533 1.542-2.159.616-.552 1.297-1.027 2.027-1.415l1.951-1.067a9.05 9.05 0 0 0 1.564-1.118 4.97 4.97 0 0 0 1.534-2.278c.082-.331.129-.671.14-1.012zm-18.933 7.476a.2.2 0 0 1-.027-.06 1.34 1.34 0 0 1-.029-.933c.342-.879 1.07-1.55 1.974-1.82.553-.19 1.18-.3 1.834-.476 1.104-.179 2.053-.884 2.541-1.891.179-.363.334-.737.466-1.12a12.23 12.23 0 0 1 .988-2.391 3.82 3.82 0 0 1 2.034-1.581 18.61 18.61 0 0 1 2.334-.591 7.73 7.73 0 0 0 2.029-.691 4.25 4.25 0 0 0 1.373-1.237 4.64 4.64 0 0 0 .873-2.525 7.27 7.27 0 0 0-.066-1 3.29 3.29 0 0 1 .129 1 4.6 4.6 0 0 1-.842 2.591c-.366.528-.844.968-1.4 1.288a7.81 7.81 0 0 1-2.061.719 18.94 18.94 0 0 0-2.312.595c-.807.265-1.496.802-1.951 1.519a12.22 12.22 0 0 0-.977 2.358c-.135.389-.295.769-.478 1.138-.512 1.042-1.499 1.769-2.645 1.95l-1.832.455a3.02 3.02 0 0 0-1.95 1.73c-.078.232-.098.48-.06.722l.055.251zm17.782 16.83c.015.066.022.133.021.2.007.189-.012.379-.057.563a3.2 3.2 0 0 1-1.178 1.684 5.25 5.25 0 0 1-1.236.734l-1.552.537a12.92 12.92 0 0 0-1.686.616 4.87 4.87 0 0 0-1.535 1.119l-1.283 1.456a5.87 5.87 0 0 1-1.437 1.125 6.31 6.31 0 0 1-2.965.771 5.88 5.88 0 0 1-2.041-.339 3.74 3.74 0 0 1-.518-.222.1.1 0 1 1 .014-.03 5.01 5.01 0 0 0 .524.192 6.16 6.16 0 0 0 2.018.284 6.3 6.3 0 0 0 2.894-.787 5.78 5.78 0 0 0 1.394-1.1l1.281-1.459a5 5 0 0 1 1.584-1.151c.554-.246 1.126-.451 1.71-.615l1.544-.518a5.23 5.23 0 0 0 1.217-.7 3.22 3.22 0 0 0 1.188-1.61c.059-.246.092-.497.099-.75z" fill="#fafafa"/><path d="M156.989 39.402l-2.6.061a4.25 4.25 0 0 1-.587 1.473 44.84 44.84 0 0 1-4.274-10.851 14.57 14.57 0 0 1 .223-.678 2.88 2.88 0 0 0-.034-1.142l-.237-1.342c-.116-.858-.254-.992-.553-.9-.407.132.167 2.409-.167 2.458-.179.027-.4-.754-.462-1.394a10.41 10.41 0 0 0-.565-2.74c-.31-.192-.581.112-.5.749s.179 2.569-.159 2.595-.613-3.238-.613-3.238.053-.71-.339-.693c-.706.031-.154 3.472-.094 3.8.042.227-.325.268-.357.022s-.2-3.265-.923-3.24c-.552.019.427 2.836.118 3.489s-.525-2.218-1.052-2.178c-.2.015-.341.053.019 1.678a36.66 36.66 0 0 0 1.26 3.808c.835 4.5 4.5 18.917 10.248 16.279 3.216-1.476 4.52-8.019 4.52-8.019z" class="D"/><path d="M145.906 27.786c.025.002.051-.001.075-.01.078-.024.127-.1.117-.18-.007-.194-.038-.475-.083-.84-.072-.44-.12-.883-.143-1.328l.017-.839a2.92 2.92 0 0 1 .046-.449c.024-.141.119-.3.228-.283h.012.005c.111 0 .2.081.233.214s.051.277.041.417v.01a25.26 25.26 0 0 0 .333 2.6l.087.352a1.69 1.69 0 0 0 .065.179c.015.033.032.064.053.093.028.047.076.077.13.082.094-.009.173-.074.2-.164a.94.94 0 0 0 .058-.192 2.89 2.89 0 0 0 .05-.38 11.37 11.37 0 0 0-.021-1.559 3.61 3.61 0 0 1-.032-.781c.011-.113.066-.218.153-.291.04-.024.089-.03.134-.017.026.007.051.018.074.032a.1.1 0 0 1 .034.046 3.9 3.9 0 0 1 .216.783l.147.841.118.862c.026.299.074.595.144.887a2.95 2.95 0 0 0 .141.441.79.79 0 0 0 .128.22c.044.057.116.083.186.068a.2.2 0 0 0 .128-.14 1.53 1.53 0 0 0 .033-.485l-.032-.46-.056-.778a2.62 2.62 0 0 1 .009-.375.6.6 0 0 1 .038-.163c.007-.017.017-.033.03-.046l.053-.02c.207-.085.276.2.331.434s.078.492.127.738l.242 1.448c.036.223.027.451-.027.671l-.219.669-.007.02v.021a36.07 36.07 0 0 0 1.395 4.508l1.423 3.42 1.093 2.161.324.557c.035.066.075.128.12.187a1.3 1.3 0 0 0-.1-.2l-.3-.57-1.048-2.178-1.384-3.426c-.549-1.467-1.005-2.968-1.364-4.493v.041l.219-.66a1.81 1.81 0 0 0 .038-.746l-.239-1.455-.128-.75a1.48 1.48 0 0 0-.127-.386c-.037-.075-.097-.136-.172-.173-.079-.03-.165-.034-.246-.01l-.052.015c-.026.01-.05.023-.071.04a.3.3 0 0 0-.079.111.77.77 0 0 0-.052.213c-.013.133-.017.267-.011.4l.057.788.032.453a1.47 1.47 0 0 1-.023.419c-.008.033-.023.027-.006.042h0v.012c0-.011.008-.025 0-.026s-.014-.01-.019-.017a.67.67 0 0 1-.1-.169 2.87 2.87 0 0 1-.132-.414c-.068-.284-.116-.574-.141-.865l-.121-.869-.151-.849c-.048-.286-.127-.565-.237-.833a.28.28 0 0 0-.1-.109c-.036-.021-.075-.038-.116-.049a.34.34 0 0 0-.263.036c-.13.097-.213.245-.23.406a1.48 1.48 0 0 0-.005.427l.039.4c.044.51.053 1.023.028 1.535-.007.121-.022.241-.045.36a.81.81 0 0 1-.047.161.2.2 0 0 1-.034.058c-.011.026-.021-.006-.02.036.016-.032 0-.014-.011-.041-.014-.021-.027-.042-.037-.065-.023-.052-.042-.106-.059-.16a3.91 3.91 0 0 1-.086-.339 25.91 25.91 0 0 1-.352-2.583v.01c.01-.156-.007-.314-.051-.464a.47.47 0 0 0-.122-.208c-.063-.057-.146-.087-.231-.084h.017a.27.27 0 0 0-.269.129c-.049.073-.083.156-.1.242-.027.155-.041.311-.042.468v.846a11.12 11.12 0 0 0 .172 1.335l.112.833c.012.069-.026.137-.091.163-.021.024-.051.027-.051.031z" class="E"/><path d="M125.6 43.694a6.7 6.7 0 0 0-1.806.207c-1.61.424-4.39 2.108-4.5 4.189h2.018s-1.13 2.407-.8 2.184c.91-.716 1.771-1.491 2.578-2.322z" class="D"/><path d="M153.14 7.47c-.045 0-.228-1.665-.409-3.728L152.484 0c.045-.004.228 1.665.409 3.728l.247 3.742zm8.856-7.368c.037.026-1.327 2.006-3.046 4.421l-3.179 4.327c-.037-.026 1.327-2.005 3.047-4.421l3.178-4.327zm3.679 8.972c.009.044-1.583.408-3.555.813l-3.588.654c-.009-.046 1.583-.408 3.555-.813l3.588-.654z" class="B"/><use xlink:href="#C" fill="#715ff2"/><use xlink:href="#C" opacity=".5"/><path d="M113.709 104.738l-7.793-62.794c-.231-2.492-2.288-4.417-4.789-4.484l-17.087.056c-1.284.013-2.505.556-3.375 1.5l-8.114 8.625-47.523.248c-1.437.069-2.776.746-3.683 1.863s-1.295 2.567-1.067 3.987l7.235 58.038c.233 2.488 2.285 4.411 4.783 4.481l82.822-.164c9.224.191 10.1-2.533 10.1-2.533-10.566 2.34-11.508-8.816-11.509-8.823z" fill="#715ff2"/><g opacity=".5" fill="#fff"><path d="M77.997 92.175l-2.793 3L53.69 75.817l2.793-3z"/><path d="M74.033 72.152l3.087 2.777-19.466 20.906-3.087-2.777z"/></g><defs ><path id="B" d="M144.319 17.777a.34.34 0 0 0 .319.351c.088.009.175-.018.243-.074s.109-.138.115-.226a.34.34 0 0 0-.319-.352c-.088-.009-.175.018-.243.074s-.109.139-.115.227z"/><path id="C" d="M59.638 51.901l-11.025 56.68-1.443 7.42 73.6-.363c3.3-.016 6.23-2.949 7.293-7.306l13.051-53.512c.807-3.308-.963-6.748-3.471-6.746l-74.49.078c-1.651-.001-3.085 1.534-3.515 3.749z"/></defs></svg>