<svg xmlns="http://www.w3.org/2000/svg" width="529.702" height="446.305" viewBox="0 0 529.702 446.305">
  <defs>
    <style>
      .cls-1, .cls-11, .cls-13, .cls-5, .cls-8 {
        fill: none;
      }

      .cls-1 {
        stroke: #f1d5ce;
        stroke-width: 0.98px;
      }

      .cls-1, .cls-11, .cls-5 {
        stroke-linecap: round;
        stroke-linejoin: round;
      }

      .cls-2 {
        fill: #0b181b;
      }

      .cls-3 {
        fill: #f9b0a3;
      }

      .cls-4 {
        fill: #fff;
      }

      .cls-5 {
        stroke: #fff;
        stroke-width: 0.958px;
      }

      .cls-6 {
        fill: #715ff2;
      }

      .cls-7 {
        fill: #e88e80;
      }

      .cls-8 {
        stroke: #55382c;
        stroke-width: 0.718px;
      }

      .cls-13, .cls-8 {
        stroke-miterlimit: 10;
      }

      .cls-9 {
        fill: #eac8ce;
      }

      .cls-10 {
        fill: #0b0b0b;
      }

      .cls-11 {
        stroke: #021833;
        stroke-width: 0.461px;
      }

      .cls-12 {
        fill: #eaeaea;
      }

      .cls-13 {
        stroke: #343a43;
        stroke-width: 1.147px;
        opacity: 0.33;
      }

      .cls-14 {
        fill: #ededff;
      }
    </style>
  </defs>
  <g id="Group_29072" data-name="Group 29072" transform="translate(-236.409 -211.29)">
    <g id="Group_26263" data-name="Group 26263" transform="translate(157.038 269.78)">
      <g id="Group_26236" data-name="Group 26236" transform="translate(3 -58)">
        <g id="Group_26232" data-name="Group 26232" transform="translate(76.861)">
          <ellipse id="Ellipse_2057" data-name="Ellipse 2057" class="cls-1" cx="33.196" cy="33.196" rx="33.196" ry="33.196"/>
          <path id="Path_39739" data-name="Path 39739" class="cls-1" d="M317.25,271.733v14.192H294.837" transform="translate(-284.054 -252.729)"/>
        </g>
      </g>
      <g id="Group_26341" data-name="Group 26341" transform="translate(92.104)">
        <g id="Group_26340" data-name="Group 26340" transform="translate(-12 37.528)">
          <g id="Group_26335" data-name="Group 26335" transform="translate(110.561)">
            <g id="Group_26316" data-name="Group 26316" transform="translate(12.935 175.353)">
              <g id="Group_26311" data-name="Group 26311">
                <path id="Path_39838" data-name="Path 39838" class="cls-2" d="M513.389,365.518c-1.617,1.384-22.972,12.924-35.9,29.54L503.3,418.829l42.714-10.24,2.516-43.071Z" transform="translate(-473.857 -365.518)"/>
                <g id="Group_26310" data-name="Group 26310" transform="translate(0 21.906)">
                  <g id="Group_26309" data-name="Group 26309" transform="translate(21.439 109.008)">
                    <path id="Path_39839" data-name="Path 39839" class="cls-3" d="M492.891,447.467l-4.562-24.151H503.9l1.873,24.151Z" transform="translate(-481.589 -423.316)"/>
                    <g id="Group_26308" data-name="Group 26308" transform="translate(0 21.856)">
                      <path id="Path_39840" data-name="Path 39840" d="M509.541,432.966H496.655s-8.976,5.651-11.3,15.624h36.233S515.636,435.736,509.541,432.966Z" transform="translate(-485.353 -432.966)"/>
                      <rect id="Rectangle_5588" data-name="Rectangle 5588" class="cls-4" width="36.234" height="4.477" transform="translate(0 15.624)"/>
                      <path id="Path_39841" data-name="Path 39841" class="cls-5" d="M490.128,436.659s7.631-4.016,13.373,0" transform="translate(-479.312 -430.552)"/>
                    </g>
                  </g>
                  <path id="Path_39842" data-name="Path 39842" class="cls-2" d="M513.5,391.408c5.087,35.663,13.851,102.63,13.851,102.63l-30.17.559L476.335,398.16a18.9,18.9,0,0,1,15.04-22.655h0A18.884,18.884,0,0,1,513.5,391.408Z" transform="translate(-475.888 -375.19)"/>
                </g>
              </g>
              <g id="Group_26315" data-name="Group 26315" transform="translate(69.294)">
                <path id="Path_39843" data-name="Path 39843" class="cls-2" d="M541.62,365.518c1.617,1.384,22.972,12.924,35.9,29.54l-25.805,23.771L509,408.589l-2.516-43.071Z" transform="translate(-506.481 -365.518)"/>
                <g id="Group_26314" data-name="Group 26314" transform="translate(15.23 21.906)">
                  <g id="Group_26313" data-name="Group 26313" transform="translate(0 109.008)">
                    <path id="Path_39844" data-name="Path 39844" class="cls-3" d="M531.409,447.467l4.562-24.151H520.4l-1.873,24.151Z" transform="translate(-506.477 -423.316)"/>
                    <g id="Group_26312" data-name="Group 26312" transform="translate(0 21.856)">
                      <path id="Path_39845" data-name="Path 39845" d="M525.252,432.966h12.886s8.974,5.651,11.3,15.624H513.2S519.157,435.736,525.252,432.966Z" transform="translate(-513.205 -432.966)"/>
                      <rect id="Rectangle_5589" data-name="Rectangle 5589" class="cls-4" width="36.234" height="4.477" transform="translate(36.235 20.101) rotate(180)"/>
                      <path id="Path_39846" data-name="Path 39846" class="cls-5" d="M531.894,436.659s-7.631-4.016-13.37,0" transform="translate(-506.477 -430.552)"/>
                    </g>
                  </g>
                  <path id="Path_39847" data-name="Path 39847" class="cls-2" d="M531.791,391.408c-5.087,35.663-16.02,102.63-16.02,102.63l30.17.559,23.012-96.437a18.9,18.9,0,0,0-15.039-22.655h0A18.884,18.884,0,0,0,531.791,391.408Z" transform="translate(-509.959 -375.19)"/>
                </g>
              </g>
            </g>
            <g id="Group_26323" data-name="Group 26323" transform="translate(0 76.594)">
              <g id="Group_26321" data-name="Group 26321">
                <path id="Path_39848" data-name="Path 39848" class="cls-6" d="M532.406,321.916s-27.284,0-47.37,19.753v55.354s96.12,1.463,96.12,0,.025-59.012.025-59.012A83.049,83.049,0,0,0,532.406,321.916Z" transform="translate(-451.38 -321.916)"/>
                <g id="Group_26318" data-name="Group 26318" transform="translate(0 16.095)">
                  <g id="Group_26317" data-name="Group 26317" transform="translate(0 32.765)">
                    <path id="Path_39849" data-name="Path 39849" class="cls-7" d="M510.612,353.711h-27.4a13.031,13.031,0,0,0-13.03,13.031h0a13.029,13.029,0,0,0,13.03,13.028h32.238Z" transform="translate(-470.177 -330.555)"/>
                    <path id="Path_39850" data-name="Path 39850" class="cls-7" d="M470.889,373.392l18.411-29.9,25.245,3.408L510.8,379.673Z" transform="translate(-469.277 -343.488)"/>
                    <line id="Line_62" data-name="Line 62" class="cls-8" x1="16.287" transform="translate(17.369 23.157)"/>
                  </g>
                  <path id="Path_39851" data-name="Path 39851" class="cls-6" d="M503.843,329.022s-14.829,11.971-30.462,38.333c0,0,3.373,15.252,32.492,17.588Z" transform="translate(-466.124 -329.022)"/>
                </g>
                <g id="Group_26320" data-name="Group 26320" transform="translate(121.382 16.095)">
                  <g id="Group_26319" data-name="Group 26319" transform="translate(0 27.282)">
                    <path id="Path_39852" data-name="Path 39852" class="cls-7" d="M528.6,353.711h27.407a13.03,13.03,0,0,1,13.028,13.031h0a13.028,13.028,0,0,1-13.028,13.028h-32.24Z" transform="translate(-523.767 -325.072)"/>
                    <path id="Path_39853" data-name="Path 39853" class="cls-7" d="M567.351,376.325l-23.038-35.258-20.545,8.891,3.745,32.778Z" transform="translate(-523.766 -341.067)"/>
                    <line id="Line_63" data-name="Line 63" class="cls-8" x2="21.512" transform="translate(6.389 28.64)"/>
                  </g>
                  <path id="Path_39854" data-name="Path 39854" class="cls-6" d="M528.617,329.022s14.829,11.971,30.462,38.333c0,0-3.373,15.252-32.491,17.588Z" transform="translate(-520.198 -329.022)"/>
                </g>
              </g>
              <g id="Group_26322" data-name="Group 26322" transform="translate(33.656 34.178)">
                <rect id="Rectangle_5590" data-name="Rectangle 5590" class="cls-9" width="96.119" height="63.897" rx="1.926"/>
                <path id="Path_39855" data-name="Path 39855" class="cls-4" d="M515.434,354.4a5.89,5.89,0,1,1-5.891-5.891A5.889,5.889,0,0,1,515.434,354.4Z" transform="translate(-461.485 -322.452)"/>
              </g>
            </g>
            <g id="Group_26334" data-name="Group 26334" transform="translate(51.61)">
              <path id="Rectangle_5591" data-name="Rectangle 5591" class="cls-7" d="M0,0H21.122a0,0,0,0,1,0,0V17.866a3.256,3.256,0,0,1-3.256,3.256H3.256A3.256,3.256,0,0,1,0,17.866V0A0,0,0,0,1,0,0Z" transform="translate(19.527 64.935)"/>
              <path id="Path_39856" data-name="Path 39856" class="cls-10" d="M501.61,319.361s3.067,9.466,21.062,9.137V315.431h0s-1.2,2.43-9.219,2.088C505.359,317.173,501.61,319.361,501.61,319.361Z" transform="translate(-482.024 -253.526)"/>
              <ellipse id="Ellipse_2058" data-name="Ellipse 2058" class="cls-2" cx="26.221" cy="26.897" rx="26.221" ry="26.897" transform="translate(3.694 2.6)"/>
              <g id="Group_26330" data-name="Group 26330" transform="translate(0 9.624)">
                <g id="Group_26326" data-name="Group 26326" transform="translate(50.918 27.752)">
                  <path id="Path_39857" data-name="Path 39857" class="cls-7" d="M517.1,306.537a4.665,4.665,0,0,1,5.782-1.527c3.894,1.477,2.134,10.933-3.708,12.138a4.616,4.616,0,0,1-3.735-.976S516.879,309.187,517.1,306.537Z" transform="translate(-515.443 -304.602)"/>
                  <g id="Group_26325" data-name="Group 26325" transform="translate(1.094 3.639)">
                    <g id="Group_26324" data-name="Group 26324">
                      <path id="Path_39858" data-name="Path 39858" class="cls-11" d="M521.5,306.314s-3.262-1.09-5.576,3.715" transform="translate(-515.926 -306.208)"/>
                    </g>
                  </g>
                </g>
                <g id="Group_26329" data-name="Group 26329" transform="translate(0 27.752)">
                  <path id="Path_39859" data-name="Path 39859" class="cls-7" d="M500.825,306.537a4.663,4.663,0,0,0-5.783-1.527c-3.893,1.477-2.131,10.933,3.71,12.138a4.617,4.617,0,0,0,3.735-.976S501.051,309.187,500.825,306.537Z" transform="translate(-492.963 -304.602)"/>
                  <g id="Group_26328" data-name="Group 26328" transform="translate(2.852 3.639)">
                    <g id="Group_26327" data-name="Group 26327">
                      <path id="Path_39860" data-name="Path 39860" class="cls-11" d="M494.222,306.314s3.264-1.09,5.579,3.715" transform="translate(-494.222 -306.208)"/>
                    </g>
                  </g>
                </g>
                <path id="Path_39861" data-name="Path 39861" class="cls-7" d="M541.818,313.887c0,6.059-.625,18.738-4.555,26.265a19.635,19.635,0,0,1-17.785,11.094c-8,.227-13.957-2.7-18.732-11.866S496.2,314,496.2,314s0-21.649,22.562-21.649C542.523,292.349,541.818,313.887,541.818,313.887Z" transform="translate(-488.871 -292.349)"/>
              </g>
              <path id="Path_39862" data-name="Path 39862" class="cls-2" d="M497.062,318.193s8.571-19.6,1.663-22.806C498.724,295.387,493.782,312.257,497.062,318.193Z" transform="translate(-489.199 -278.882)"/>
              <path id="Path_39863" data-name="Path 39863" class="cls-2" d="M517.442,315.605s-4.818-10.566-.568-18.172C516.873,297.433,520.722,309.669,517.442,315.605Z" transform="translate(-464.932 -276.293)"/>
              <g id="Group_26332" data-name="Group 26332" transform="translate(13.772 35.241)">
                <g id="Group_26331" data-name="Group 26331" transform="translate(4.31 6.782)">
                  <path id="Path_39864" data-name="Path 39864" class="cls-2" d="M505.07,308.716a2.062,2.062,0,1,1-2.063-2.063A2.062,2.062,0,0,1,505.07,308.716Z" transform="translate(-500.946 -306.653)"/>
                  <path id="Path_39865" data-name="Path 39865" class="cls-2" d="M513.5,308.716a2.062,2.062,0,1,1-2.063-2.063A2.062,2.062,0,0,1,513.5,308.716Z" transform="translate(-490.281 -306.653)"/>
                </g>
                <path id="Path_39866" data-name="Path 39866" class="cls-11" d="M505.615,309.547l0,2.784a1.086,1.086,0,0,0,1.289,1.087l1.481-.31" transform="translate(-490.729 -296.21)"/>
                <path id="Path_39867" data-name="Path 39867" class="cls-2" d="M511.544,306.112l-12.5,1.5s1-3.316,6.111-3.885S511.544,306.112,511.544,306.112Z" transform="translate(-499.043 -303.659)"/>
                <path id="Path_39868" data-name="Path 39868" class="cls-2" d="M507.744,306.112l12.5,1.5s-1-3.316-6.109-3.885S507.744,306.112,507.744,306.112Z" transform="translate(-488.036 -303.659)"/>
                <path id="Path_39869" data-name="Path 39869" class="cls-4" d="M503.315,312.665h12.618s.215,4.7-6.326,4.421S503.315,312.665,503.315,312.665Z" transform="translate(-493.641 -292.266)"/>
              </g>
              <path id="Path_39870" data-name="Path 39870" class="cls-2" d="M497.168,300.914s14.093,17.076,43.916,11.4c0,0,2.625-15.431-12.793-20.147S500.846,298.6,497.168,300.914Z" transform="translate(-487.643 -284.409)"/>
              <path id="Path_39871" data-name="Path 39871" class="cls-2" d="M497.168,304.605s-.29-14.011,12.682-16.111,13.386,4.843,22.569,5.393c13.708.822,19.961,14.3,8.666,22.12l-19.067-11.4Z" transform="translate(-487.644 -288.1)"/>
              <path id="Path_39872" data-name="Path 39872" class="cls-2" d="M501.99,293.591s-14.131,1.737-5.4,24.154Z" transform="translate(-491.976 -281.154)"/>
              <g id="Group_26333" data-name="Group 26333" transform="translate(12.33 74.362)">
                <path id="Path_39873" data-name="Path 39873" class="cls-4" d="M505.6,320.931l10.388,11.695-7.709,7.888-9.877-14.986Z" transform="translate(-498.406 -320.931)"/>
                <path id="Path_39874" data-name="Path 39874" class="cls-4" d="M516.9,321.2,506.17,332.285l7.709,7.888,11.029-15Z" transform="translate(-488.585 -320.59)"/>
              </g>
            </g>
          </g>
          <g id="Group_26339" data-name="Group 26339" transform="translate(0 174.668)">
            <g id="Group_26338" data-name="Group 26338" transform="translate(54.333)">
              <rect id="Rectangle_5592" data-name="Rectangle 5592" class="cls-4" width="300.39" height="16.637"/>
              <g id="Group_26336" data-name="Group 26336" transform="translate(46.836 16.637)">
                <rect id="Rectangle_5593" data-name="Rectangle 5593" class="cls-4" width="10.443" height="157.481"/>
                <rect id="Rectangle_5594" data-name="Rectangle 5594" class="cls-12" width="10.443" height="5.251"/>
              </g>
              <g id="Group_26337" data-name="Group 26337" transform="translate(251.072 16.637)">
                <rect id="Rectangle_5595" data-name="Rectangle 5595" class="cls-4" width="10.443" height="157.481"/>
                <rect id="Rectangle_5596" data-name="Rectangle 5596" class="cls-12" width="10.443" height="5.251"/>
              </g>
            </g>
            <line id="Line_64" data-name="Line 64" class="cls-13" x1="528.97" transform="translate(0 175.045)"/>
          </g>
        </g>
      </g>
    </g>
    <g id="Group_26307" data-name="Group 26307" transform="translate(501.826 295.793)">
      <g id="Group_26303" data-name="Group 26303" transform="translate(0)">
        <g id="Group_26301" data-name="Group 26301">
          <g id="Group_26300" data-name="Group 26300">
            <rect id="Rectangle_5585" data-name="Rectangle 5585" class="cls-14" width="96.762" height="68.782" rx="3.242" transform="translate(0 0)"/>
            <path id="Path_39832" data-name="Path 39832" class="cls-14" d="M458.221,298.293l7.426,14.422a2.574,2.574,0,0,0,4.485.163l8.9-14.585Z" transform="translate(-445.187 -235.139)"/>
          </g>
        </g>
        <path id="Icon_awesome-question-circle" data-name="Icon awesome-question-circle" d="M35.438,18A17.438,17.438,0,1,1,18,.563,17.437,17.437,0,0,1,35.438,18ZM18.468,6.328a9.107,9.107,0,0,0-8.195,4.483.845.845,0,0,0,.191,1.143L12.9,13.8a.843.843,0,0,0,1.172-.149c1.256-1.593,2.117-2.517,4.029-2.517,1.436,0,3.213.924,3.213,2.317,0,1.053-.869,1.594-2.288,2.389-1.654.927-3.843,2.081-3.843,4.968v.281a.844.844,0,0,0,.844.844h3.938a.844.844,0,0,0,.844-.844V21c0-2,5.849-2.085,5.849-7.5C26.662,9.422,22.431,6.328,18.468,6.328ZM18,23.766A3.234,3.234,0,1,0,21.234,27,3.238,3.238,0,0,0,18,23.766Z" transform="translate(29.438 14.438)"/>
      </g>
    </g>
  </g>
</svg>
