<svg id="Icon_ionic-ios-mail" data-name="Icon ionic-ios-mail" xmlns="http://www.w3.org/2000/svg" width="24.556" height="17" viewBox="0 0 24.556 17">
  <defs>
    <style>
      .cls-1 {
        fill: #715ff2;
      }
    </style>
  </defs>
  <path id="Path_39973" data-name="Path 39973" class="cls-1" d="M27.73,10.35,21.378,16.82a.114.114,0,0,0,0,.165l4.445,4.734a.766.766,0,0,1,0,1.086.77.77,0,0,1-1.086,0L20.31,18.089a.121.121,0,0,0-.171,0l-1.08,1.1a4.753,4.753,0,0,1-3.388,1.428,4.848,4.848,0,0,1-3.459-1.47l-1.039-1.057a.121.121,0,0,0-.171,0L6.574,22.8a.77.77,0,0,1-1.086,0,.766.766,0,0,1,0-1.086l4.445-4.734a.126.126,0,0,0,0-.165L3.576,10.35a.116.116,0,0,0-.2.083V23.378a1.894,1.894,0,0,0,1.889,1.889H26.042a1.894,1.894,0,0,0,1.889-1.889V10.433A.118.118,0,0,0,27.73,10.35Z" transform="translate(-3.375 -8.266)"/>
  <path id="Path_39974" data-name="Path 39974" class="cls-1" d="M15.789,18.683a3.209,3.209,0,0,0,2.308-.968l9.261-9.427a1.855,1.855,0,0,0-1.169-.413H5.395a1.843,1.843,0,0,0-1.169.413l9.261,9.427A3.209,3.209,0,0,0,15.789,18.683Z" transform="translate(-3.512 -7.875)"/>
</svg>
