<svg xmlns="http://www.w3.org/2000/svg" width="18.434" height="18.438" viewBox="0 0 18.434 18.438">
  <defs>
    <style>
      .cls-1 {
        fill: #715ff2;
      }
    </style>
  </defs>
  <path id="Icon_awesome-globe" data-name="Icon awesome-globe" class="cls-1" d="M12.509,6.213C11.97,2.893,10.7.563,9.219.563s-2.751,2.331-3.29,5.65ZM5.65,9.781a23.3,23.3,0,0,0,.123,2.379h6.888a23.3,23.3,0,0,0,.123-2.379A23.3,23.3,0,0,0,12.661,7.4H5.773A23.3,23.3,0,0,0,5.65,9.781Zm12.07-3.569A9.238,9.238,0,0,0,11.847.949a12.546,12.546,0,0,1,1.859,5.264ZM6.587.949A9.232,9.232,0,0,0,.717,6.213H4.732A12.5,12.5,0,0,1,6.587.949ZM18.118,7.4H13.855c.078.781.123,1.58.123,2.379s-.045,1.6-.123,2.379h4.26a9.139,9.139,0,0,0,.32-2.379A9.3,9.3,0,0,0,18.118,7.4ZM4.461,9.781c0-.8.045-1.6.123-2.379H.32a9.012,9.012,0,0,0,0,4.758H4.58C4.505,11.38,4.461,10.581,4.461,9.781ZM5.929,13.35C6.468,16.67,7.739,19,9.219,19s2.751-2.331,3.29-5.65Zm5.922,5.264a9.247,9.247,0,0,0,5.873-5.264H13.71a12.546,12.546,0,0,1-1.859,5.264ZM.717,13.35a9.238,9.238,0,0,0,5.873,5.264A12.546,12.546,0,0,1,4.732,13.35H.717Z" transform="translate(0 -0.563)"/>
</svg>
