<svg xmlns="http://www.w3.org/2000/svg" width="11.848" height="18.833" viewBox="0 0 11.848 18.833">
    <g>
        <path fill="#343a43" d="M4.877 18.237c-.487-.868-.964-1.747-1.431-2.647s-.958-1.9-1.474-3.021a30.7 30.7 0 0 1-1.3-3.279 14.038 14.038 0 0 1-.65-2.8v-.243A.445.445 0 0 1 0 6.1v-.24a5.654 5.654 0 0 1 .792-2.935A5.952 5.952 0 0 1 5.919 0a5.955 5.955 0 0 1 5.127 2.925 5.667 5.667 0 0 1 .8 2.935v.386a.155.155 0 0 0-.022.1v.15a14.2 14.2 0 0 1-.661 2.8 30.979 30.979 0 0 1-1.3 3.279c-.515 1.112-1 2.121-1.463 3.021s-.977 1.754-1.43 2.641a1.182 1.182 0 0 1-1.07.6 1.082 1.082 0 0 1-1.023-.6zM2.58 2.561a4.5 4.5 0 0 0-1.389 3.3v.193a.19.19 0 0 0 .023.107v.225A13.568 13.568 0 0 0 1.9 9.139a31.074 31.074 0 0 0 1.344 3.3c.529 1.115.995 2.08 1.42 2.9s.846 1.586 1.258 2.314q.633-1.125 1.257-2.325c.418-.805.9-1.757 1.43-2.882a31.821 31.821 0 0 0 1.353-3.307 12.837 12.837 0 0 0 .672-2.754v-.138a.09.09 0 0 1 .022-.064V5.86a4.5 4.5 0 0 0-1.388-3.3 4.574 4.574 0 0 0-3.349-1.381A4.568 4.568 0 0 0 2.58 2.561zm1.8 5.079a2.064 2.064 0 0 1-.63-1.522A2.064 2.064 0 0 1 4.379 4.6a2.191 2.191 0 0 1 3.079 0 2.129 2.129 0 0 1 0 3.043 2.19 2.19 0 0 1-3.079 0zm.846-2.2a.951.951 0 0 0 0 1.361.989.989 0 0 0 1.387 0 .937.937 0 0 0 0-1.361 1 1 0 0 0-.7-.288.981.981 0 0 0-.688.291z"/>
        <path fill="none" d="M4.877 18.237c-.487-.868-.964-1.747-1.431-2.647s-.958-1.9-1.474-3.021a30.7 30.7 0 0 1-1.3-3.279 14.038 14.038 0 0 1-.65-2.8v-.243A.445.445 0 0 1 0 6.1v-.24a5.654 5.654 0 0 1 .792-2.935A5.952 5.952 0 0 1 5.919 0a5.955 5.955 0 0 1 5.127 2.925 5.667 5.667 0 0 1 .8 2.935v.386a.155.155 0 0 0-.022.1v.15a14.2 14.2 0 0 1-.661 2.8 30.979 30.979 0 0 1-1.3 3.279c-.515 1.112-1 2.121-1.463 3.021s-.977 1.754-1.43 2.641a1.182 1.182 0 0 1-1.07.6 1.082 1.082 0 0 1-1.023-.6zM2.58 2.561a4.5 4.5 0 0 0-1.389 3.3v.193a.19.19 0 0 0 .023.107v.225A13.568 13.568 0 0 0 1.9 9.139a31.074 31.074 0 0 0 1.344 3.3c.529 1.115.995 2.08 1.42 2.9s.846 1.586 1.258 2.314q.633-1.125 1.257-2.325c.418-.805.9-1.757 1.43-2.882a31.821 31.821 0 0 0 1.353-3.307 12.837 12.837 0 0 0 .672-2.754v-.138a.09.09 0 0 1 .022-.064V5.86a4.5 4.5 0 0 0-1.388-3.3 4.574 4.574 0 0 0-3.349-1.381A4.568 4.568 0 0 0 2.58 2.561zm1.8 5.079a2.064 2.064 0 0 1-.63-1.522A2.064 2.064 0 0 1 4.379 4.6a2.191 2.191 0 0 1 3.079 0 2.129 2.129 0 0 1 0 3.043 2.19 2.19 0 0 1-3.079 0zm.846-2.2a.951.951 0 0 0 0 1.361.989.989 0 0 0 1.387 0 .937.937 0 0 0 0-1.361 1 1 0 0 0-.7-.288.981.981 0 0 0-.688.291z"/>
    </g>
</svg>
