<svg xmlns="http://www.w3.org/2000/svg" width="11.031" height="17.52" viewBox="0 0 11.031 17.52">
  <defs>
    <style>
      .cls-1 {
        fill: #ffffff;
      }
    </style>
  </defs>
  <path id="Stroke_Effect" data-name="Stroke Effect" class="cls-1" d="M4.541,16.964c-.454-.807-.9-1.624-1.332-2.461s-.892-1.773-1.372-2.811A28.483,28.483,0,0,1,.626,8.642a12.96,12.96,0,0,1-.605-2.6v-.23A.394.394,0,0,1,0,5.671V5.452A5.259,5.259,0,0,1,.737,2.721,5.543,5.543,0,0,1,5.511,0a5.542,5.542,0,0,1,4.773,2.721,5.271,5.271,0,0,1,.747,2.731v.359a.141.141,0,0,0-.02.09v.14a13.176,13.176,0,0,1-.615,2.6,28.792,28.792,0,0,1-1.211,3.05c-.48,1.035-.929,1.973-1.363,2.811s-.91,1.638-1.332,2.461a1.1,1.1,0,0,1-1,.555A1.007,1.007,0,0,1,4.541,16.964ZM2.4,2.382A4.181,4.181,0,0,0,1.11,5.452v.18a.182.182,0,0,0,.02.1v.209A12.644,12.644,0,0,0,1.766,8.5a28.72,28.72,0,0,0,1.252,3.07c.492,1.038.926,1.935,1.321,2.7s.788,1.475,1.171,2.153q.59-1.047,1.17-2.163c.39-.749.838-1.634,1.332-2.681A29.6,29.6,0,0,0,9.275,8.5,11.9,11.9,0,0,0,9.9,5.941v-.13a.083.083,0,0,1,.02-.06v-.3a4.182,4.182,0,0,0-1.292-3.07A4.261,4.261,0,0,0,5.511,1.1,4.252,4.252,0,0,0,2.4,2.382ZM4.077,7.107a1.921,1.921,0,0,1-.585-1.415,1.921,1.921,0,0,1,.585-1.415,2.04,2.04,0,0,1,2.866,0,1.979,1.979,0,0,1,0,2.831,2.039,2.039,0,0,1-2.866,0Zm.787-2.043a.884.884,0,0,0,0,1.266.92.92,0,0,0,1.291,0,.871.871,0,0,0,0-1.266A.928.928,0,0,0,5.508,4.8.912.912,0,0,0,4.865,5.063Z"/>
</svg>