<svg xmlns="http://www.w3.org/2000/svg" id="Pin" width="9.936" height="15.795" viewBox="0 0 9.936 15.795">
    <defs>
        <style>
            .cls-1{fill:#fff}
        </style>
    </defs>
    <path id="Forma_1" d="M4.09 15.295c-.409-.728-.809-1.465-1.2-2.22s-.8-1.6-1.236-2.534a25.746 25.746 0 0 1-1.091-2.75 11.774 11.774 0 0 1-.545-2.345v-.207A.374.374 0 0 1 0 5.113v-.2a4.742 4.742 0 0 1 .664-2.46A4.992 4.992 0 0 1 4.964 0a4.995 4.995 0 0 1 4.3 2.453 4.753 4.753 0 0 1 .672 2.462v.324a.13.13 0 0 0-.018.081v.125a11.911 11.911 0 0 1-.554 2.345 25.982 25.982 0 0 1-1.091 2.75c-.432.932-.836 1.779-1.227 2.534s-.82 1.477-1.2 2.22a.992.992 0 0 1-.9.5.908.908 0 0 1-.856-.499zM2.164 2.147A3.771 3.771 0 0 0 1 4.915v.162a.159.159 0 0 0 .019.09v.189a11.38 11.38 0 0 0 .572 2.309 26.061 26.061 0 0 0 1.127 2.768c.444.935.834 1.744 1.191 2.435s.709 1.33 1.055 1.941q.531-.943 1.054-1.95c.35-.675.754-1.473 1.2-2.417a26.688 26.688 0 0 0 1.137-2.777 10.767 10.767 0 0 0 .564-2.309v-.117a.076.076 0 0 1 .018-.054v-.27a3.771 3.771 0 0 0-1.164-2.768A3.836 3.836 0 0 0 4.964.989a3.831 3.831 0 0 0-2.8 1.158zm1.509 4.26a1.731 1.731 0 0 1-.527-1.276 1.731 1.731 0 0 1 .527-1.276 1.837 1.837 0 0 1 2.583 0 1.786 1.786 0 0 1 0 2.552 1.836 1.836 0 0 1-2.583 0zm.709-1.842a.8.8 0 0 0 0 1.141.829.829 0 0 0 1.164 0 .786.786 0 0 0 0-1.141.834.834 0 0 0-.584-.241.822.822 0 0 0-.58.241z" class="cls-1"/>
    <path id="Stroke_Effect" d="M4.09 15.295c-.409-.728-.809-1.465-1.2-2.22s-.8-1.6-1.236-2.534a25.746 25.746 0 0 1-1.091-2.75 11.774 11.774 0 0 1-.545-2.345v-.207A.374.374 0 0 1 0 5.113v-.2a4.742 4.742 0 0 1 .664-2.46A4.992 4.992 0 0 1 4.964 0a4.995 4.995 0 0 1 4.3 2.453 4.753 4.753 0 0 1 .672 2.462v.324a.13.13 0 0 0-.018.081v.125a11.911 11.911 0 0 1-.554 2.345 25.982 25.982 0 0 1-1.091 2.75c-.432.932-.836 1.779-1.227 2.534s-.82 1.477-1.2 2.22a.992.992 0 0 1-.9.5.908.908 0 0 1-.856-.499zM2.164 2.147A3.771 3.771 0 0 0 1 4.915v.162a.159.159 0 0 0 .019.09v.189a11.38 11.38 0 0 0 .572 2.309 26.061 26.061 0 0 0 1.127 2.768c.444.935.834 1.744 1.191 2.435s.709 1.33 1.055 1.941q.531-.943 1.054-1.95c.35-.675.754-1.473 1.2-2.417a26.688 26.688 0 0 0 1.137-2.777 10.767 10.767 0 0 0 .564-2.309v-.117a.076.076 0 0 1 .018-.054v-.27a3.771 3.771 0 0 0-1.164-2.768A3.836 3.836 0 0 0 4.964.989a3.831 3.831 0 0 0-2.8 1.158zm1.509 4.26a1.731 1.731 0 0 1-.527-1.276 1.731 1.731 0 0 1 .527-1.276 1.837 1.837 0 0 1 2.583 0 1.786 1.786 0 0 1 0 2.552 1.836 1.836 0 0 1-2.583 0zm.709-1.842a.8.8 0 0 0 0 1.141.829.829 0 0 0 1.164 0 .786.786 0 0 0 0-1.141.834.834 0 0 0-.584-.241.822.822 0 0 0-.58.241z" class="cls-1"/>
</svg>
