<svg xmlns="http://www.w3.org/2000/svg" width="23.556" height="23.597" viewBox="0 0 23.556 23.597">
    <path fill="none" stroke="#7966fe" stroke-linecap="round" stroke-linejoin="round" stroke-width="2px" d="M16.454 5.608a5.134 5.134 0 0 1 4.056 4.056M16.454 1.5a9.242 9.242 0 0 1 8.164 8.154m-1.027 8.195v3.081a2.054 2.054 0 0 1-2.239 2.054 20.322 20.322 0 0 1-8.862-3.154 20.025 20.025 0 0 1-6.161-6.161 20.322 20.322 0 0 1-3.153-8.9A2.054 2.054 0 0 1 5.22 2.527H8.3a2.054 2.054 0 0 1 2.054 1.766 13.185 13.185 0 0 0 .719 2.886 2.054 2.054 0 0 1-.462 2.167l-1.3 1.3a16.43 16.43 0 0 0 6.161 6.161l1.3-1.3a2.054 2.054 0 0 1 2.167-.462 13.185 13.185 0 0 0 2.886.719 2.054 2.054 0 0 1 1.766 2.084z" transform="translate(-2.167 -.396)"/>
</svg>
