<svg xmlns="http://www.w3.org/2000/svg" id="Pin" width="11.876" height="18.879" viewBox="0 0 11.876 18.879">
    <defs>
        <style>
            .cls-1{fill:#343a43}
        </style>
    </defs>
    <path id="Forma_1" d="M4.889 18.281c-.489-.87-.966-1.751-1.434-2.653s-.96-1.909-1.477-3.028a30.772 30.772 0 0 1-1.3-3.287 14.072 14.072 0 0 1-.652-2.8v-.251A.447.447 0 0 1 0 6.111v-.236a5.667 5.667 0 0 1 .793-2.943A5.966 5.966 0 0 1 5.933 0a5.97 5.97 0 0 1 5.139 2.932 5.68 5.68 0 0 1 .8 2.942v.387a.156.156 0 0 0-.022.1v.15a14.236 14.236 0 0 1-.662 2.8 31.054 31.054 0 0 1-1.3 3.287c-.516 1.115-1 2.126-1.467 3.028s-.98 1.765-1.435 2.653a1.185 1.185 0 0 1-1.073.6 1.085 1.085 0 0 1-1.024-.598zM2.586 2.567a4.507 4.507 0 0 0-1.392 3.308v.193a.19.19 0 0 0 .023.107V6.4A13.6 13.6 0 0 0 1.9 9.162a31.149 31.149 0 0 0 1.348 3.308c.53 1.118 1 2.085 1.423 2.911S5.52 16.97 5.933 17.7q.635-1.127 1.26-2.331c.419-.807.9-1.761 1.434-2.889a31.9 31.9 0 0 0 1.359-3.318 12.868 12.868 0 0 0 .674-2.76v-.14a.09.09 0 0 1 .022-.065v-.322A4.508 4.508 0 0 0 9.29 2.567a4.585 4.585 0 0 0-3.357-1.386 4.579 4.579 0 0 0-3.347 1.386zm1.8 5.091a2.069 2.069 0 0 1-.63-1.525 2.069 2.069 0 0 1 .63-1.525 2.2 2.2 0 0 1 3.087 0 2.134 2.134 0 0 1 0 3.05 2.195 2.195 0 0 1-3.087 0zm.848-2.2a.953.953 0 0 0 0 1.364.991.991 0 0 0 1.391 0 .94.94 0 0 0 0-1.364 1 1 0 0 0-.7-.289.983.983 0 0 0-.688.287z" class="cls-1"/>
    <path id="Stroke_Effect" d="M4.889 18.281c-.489-.87-.966-1.751-1.434-2.653s-.96-1.909-1.477-3.028a30.772 30.772 0 0 1-1.3-3.287 14.072 14.072 0 0 1-.652-2.8v-.251A.447.447 0 0 1 0 6.111v-.236a5.667 5.667 0 0 1 .793-2.943A5.966 5.966 0 0 1 5.933 0a5.97 5.97 0 0 1 5.139 2.932 5.68 5.68 0 0 1 .8 2.942v.387a.156.156 0 0 0-.022.1v.15a14.236 14.236 0 0 1-.662 2.8 31.054 31.054 0 0 1-1.3 3.287c-.516 1.115-1 2.126-1.467 3.028s-.98 1.765-1.435 2.653a1.185 1.185 0 0 1-1.073.6 1.085 1.085 0 0 1-1.024-.598zM2.586 2.567a4.507 4.507 0 0 0-1.392 3.308v.193a.19.19 0 0 0 .023.107V6.4A13.6 13.6 0 0 0 1.9 9.162a31.149 31.149 0 0 0 1.348 3.308c.53 1.118 1 2.085 1.423 2.911S5.52 16.97 5.933 17.7q.635-1.127 1.26-2.331c.419-.807.9-1.761 1.434-2.889a31.9 31.9 0 0 0 1.359-3.318 12.868 12.868 0 0 0 .674-2.76v-.14a.09.09 0 0 1 .022-.065v-.322A4.508 4.508 0 0 0 9.29 2.567a4.585 4.585 0 0 0-3.357-1.386 4.579 4.579 0 0 0-3.347 1.386zm1.8 5.091a2.069 2.069 0 0 1-.63-1.525 2.069 2.069 0 0 1 .63-1.525 2.2 2.2 0 0 1 3.087 0 2.134 2.134 0 0 1 0 3.05 2.195 2.195 0 0 1-3.087 0zm.848-2.2a.953.953 0 0 0 0 1.364.991.991 0 0 0 1.391 0 .94.94 0 0 0 0-1.364 1 1 0 0 0-.7-.289.983.983 0 0 0-.688.287z" class="cls-1"/>
</svg>
