<svg xmlns="http://www.w3.org/2000/svg" width="15.139" height="17.787" viewBox="0 0 15.139 17.787">
  <defs>
    <style>
      .cls-1, .cls-3 {
        fill: #fff;
      }

      .cls-1 {
        stroke-linejoin: round;
      }

      .cls-2, .cls-3 {
        stroke: none;
      }
    </style>
  </defs>
  <g id="Shape_1_copy_5" data-name="Shape 1 copy 5" class="cls-1" transform="translate(0.4 0.4)">
    <path class="cls-2" d="M 7.631772518157959 17.26044654846191 L 7.453542709350586 17.16139602661133 L 5.160792350769043 15.88721656799316 L 4.989452362060547 15.79199600219727 L 5.081202507019043 15.6187858581543 L 5.199902534484863 15.39468574523926 C 5.397132396697998 15.022536277771 5.415262699127197 14.81234645843506 5.288092613220215 14.37231636047363 C 5.084202766418457 13.66836643218994 4.536332607269287 13.23100566864014 3.858322620391846 13.23100566864014 C 3.698802471160889 13.23100566864014 3.535582542419434 13.2559061050415 3.373182535171509 13.30502605438232 C 2.946822643280029 13.43431568145752 2.785342454910278 13.56390571594238 2.587942600250244 13.93526649475098 L 2.469672441482544 14.15838623046875 L 2.374132633209229 14.33865642547607 L 2.195802450180054 14.23953628540039 L -0.09715744107961655 12.96513652801514 L -0.2686074376106262 12.86984634399414 L -0.1766674369573593 12.69657611846924 L 6.61041259765625 -0.0937538668513298 L 6.705982685089111 -0.2738438546657562 L 6.884202480316162 -0.1748438626527786 L 9.178242683410645 1.099446177482605 L 9.34996223449707 1.194836139678955 L 9.257682800292969 1.368236184120178 L 9.138662338256836 1.591896176338196 C 8.940962791442871 1.963986158370972 8.922782897949219 2.174116134643555 9.05028247833252 2.61375617980957 C 9.253872871398926 3.317956209182739 9.801782608032227 3.755316019058228 10.48023223876953 3.755316019058228 C 10.63977241516113 3.755316019058228 10.80296230316162 3.730386018753052 10.96527290344238 3.681236028671265 C 11.3925724029541 3.551636219024658 11.55394268035889 3.422276020050049 11.75003242492676 3.05211615562439 L 11.86900234222412 2.827896118164063 L 11.9645824432373 2.64776611328125 L 12.142822265625 2.746816158294678 L 14.43589210510254 4.021096229553223 L 14.60737228393555 4.116385936737061 L 14.51540279388428 4.289676189422607 L 7.727352619171143 17.08033561706543 L 7.631772518157959 17.26044654846191 Z M 6.172425270080566 15.4121150970459 L 7.269745826721191 16.02243232727051 L 11.04383850097656 8.910880088806152 L 10.19640254974365 8.440316200256348 L 10.02476215362549 8.345005989074707 L 10.11687278747559 8.171636581420898 L 10.35469245910645 7.723986148834229 L 10.45031261444092 7.543986320495605 L 10.62847232818604 7.642996311187744 L 11.46892261505127 8.110091209411621 L 13.39551734924316 4.479918003082275 L 12.29675579071045 3.869616270065308 C 12.04037284851074 4.202317237854004 11.72402095794678 4.400389671325684 11.22254276275635 4.552346229553223 C 10.97962284088135 4.625956058502197 10.73230266571045 4.663286209106445 10.48745250701904 4.663286209106445 C 9.406032562255859 4.66330623626709 8.503632545471191 3.959296226501465 8.188492774963379 2.869736194610596 C 8.039647102355957 2.357107162475586 8.030656814575195 1.977892875671387 8.166017532348633 1.574489235877991 L 7.068406105041504 0.9645290374755859 L 5.142481803894043 4.594325065612793 L 5.988782405853271 5.064846038818359 L 6.160012722015381 5.160036087036133 L 6.06837272644043 5.33319616317749 L 5.831412792205811 5.780966281890869 L 5.735922336578369 5.961406230926514 L 5.557482719421387 5.862236022949219 L 4.717031955718994 5.395140647888184 L 0.9430089592933655 12.50665187835693 L 2.041838407516479 13.11704254150391 C 2.29886794090271 12.7840404510498 2.615159749984741 12.58595561981201 3.115992546081543 12.43422603607178 C 3.359132528305054 12.36055660247803 3.606592655181885 12.32319641113281 3.851462602615356 12.32319641113281 L 3.851482629776001 12.32319641113281 C 4.931992530822754 12.32331657409668 5.834022521972656 13.02734565734863 6.149492740631104 14.11677646636963 C 6.298183917999268 14.63027381896973 6.307305812835693 15.00950622558594 6.172425270080566 15.4121150970459 Z M 9.75743293762207 8.19550609588623 L 9.57894229888916 8.096436500549316 L 8.341082572937012 7.409386157989502 L 8.169292449951172 7.31403636932373 L 8.26157283782959 7.140585899353027 L 8.499612808227539 6.693146228790283 L 8.595292091369629 6.513296127319336 L 8.77335262298584 6.612266063690186 L 10.00960254669189 7.299426078796387 L 10.18076229095459 7.394566059112549 L 10.08925247192383 7.567696094512939 L 9.852822303771973 8.015026092529297 L 9.75743293762207 8.19550609588623 Z M 7.59172248840332 6.992706298828125 L 7.413402557373047 6.893656253814697 L 6.175752639770508 6.20616626739502 L 6.004202365875244 6.110866069793701 L 6.096222400665283 5.937536239624023 L 6.333722591400146 5.490206241607666 L 6.429292678833008 5.310215950012207 L 6.607452392578125 5.409136295318604 L 7.844892501831055 6.09618616104126 L 8.016372680664063 6.191396236419678 L 7.924532413482666 6.364696025848389 L 7.68724250793457 6.812466144561768 L 7.59172248840332 6.992706298828125 Z"/>
    <path class="cls-3" d="M 7.550692558288574 16.98657608032227 L 14.33874225616455 4.195916175842285 L 12.04567241668701 2.92163610458374 L 11.92676258087158 3.145736217498779 C 11.70490264892578 3.564556121826172 11.50178241729736 3.727506160736084 11.02324295043945 3.87264609336853 C 10.83882999420166 3.928499460220337 10.65661811828613 3.955314636230469 10.4802303314209 3.955314636230469 C 9.73124885559082 3.955314636230469 9.089961051940918 3.471115589141846 8.858192443847656 2.669466018676758 C 8.716142654418945 2.179646015167236 8.739282608032227 1.917316079139709 8.962102890014648 1.49794614315033 L 9.081122398376465 1.274286150932312 L 6.787082672119141 -3.867187388095772e-06 L 2.558593678259058e-06 12.79032611846924 L 2.292962551116943 14.06472587585449 L 2.411342620849609 13.84138584136963 C 2.634272575378418 13.42200660705566 2.836642503738403 13.25873565673828 3.315282583236694 13.11359596252441 C 3.499740362167358 13.05780124664307 3.682011127471924 13.03100204467773 3.858321666717529 13.03100204467773 C 4.607571125030518 13.03100204467773 5.248081684112549 13.51527500152588 5.480232715606689 14.31678581237793 C 5.621852397918701 14.80681610107422 5.598502635955811 15.06968593597412 5.37664270401001 15.48829650878906 L 5.257942676544189 15.71239566802979 L 7.550692558288574 16.98657608032227 M 3.851462602615356 12.52319622039795 C 3.630132675170898 12.52319622039795 3.402492523193359 12.556396484375 3.173982620239258 12.62563610076904 C 2.653452634811401 12.78333568572998 2.356922626495361 12.985276222229 2.101522445678711 13.37898635864258 L 0.6743725538253784 12.58621597290039 L 4.63596248626709 5.12126636505127 L 5.654642581939697 5.687416076660156 L 5.891602516174316 5.239645957946777 L 4.873892784118652 4.673826217651367 L 6.987312793731689 0.6906561255455017 L 8.414462089538574 1.48374617099762 C 8.230632781982422 1.9168860912323 8.226032257080078 2.281756162643433 8.380612373352051 2.814166069030762 C 8.675410270690918 3.833367586135864 9.522821426391602 4.463303565979004 10.48745346069336 4.463289260864258 C 10.70872497558594 4.46328592300415 10.93619441986084 4.430136680603027 11.16454219818115 4.360936164855957 C 11.68465232849121 4.203336238861084 11.98225212097168 4.001296043395996 12.23689270019531 3.607586145401001 L 13.66416263580322 4.400356292724609 L 11.54999256134033 8.383966445922852 L 10.53131294250488 7.817816257476807 L 10.29349231719971 8.26546573638916 L 11.31249237060547 8.831295967102051 L 7.350792407989502 16.29635620117188 L 5.924062728881836 15.50282573699951 C 6.107792377471924 15.06968593597412 6.111642360687256 14.7051362991333 5.957382678985596 14.17240619659424 C 5.662352561950684 13.15356636047363 4.816042423248291 12.52330589294434 3.851462602615356 12.52319622039795 M 9.676002502441406 7.921566009521484 L 9.912432670593262 7.474236011505127 L 8.676182746887207 6.787075996398926 L 8.438142776489258 7.234516143798828 L 9.676002502441406 7.921566009521484 M 7.510522365570068 6.71881628036499 L 7.747812747955322 6.271046161651611 L 6.510372638702393 5.583996295928955 L 6.272872447967529 6.031326293945313 L 7.510522365570068 6.71881628036499 M 7.55070972442627 17.38657760620117 C 7.483313083648682 17.38657760620117 7.41637659072876 17.36955451965332 7.356382369995117 17.33621597290039 L 5.063632488250732 16.06203651428223 C 4.873282432556152 15.9562463760376 4.80253267288208 15.71761608123779 4.904462337493896 15.52516651153564 L 5.023162364959717 15.30106639862061 C 5.196232795715332 14.97453594207764 5.209142684936523 14.81948566436768 5.095962524414063 14.42784595489502 C 4.917892456054688 13.81305599212646 4.44363260269165 13.43100643157959 3.858322620391846 13.43100643157959 C 3.718442440032959 13.43100643157959 3.574702501296997 13.45302581787109 3.431082487106323 13.4964656829834 C 3.055232524871826 13.61043643951416 2.936822652816772 13.70503616333008 2.764542579650879 14.02913570404053 L 2.646382570266724 14.25205612182617 C 2.596052646636963 14.34700584411621 2.509642601013184 14.41771602630615 2.406602621078491 14.44824600219727 C 2.369377613067627 14.4592752456665 2.331103086471558 14.46472549438477 2.29298210144043 14.46472644805908 C 2.225583076477051 14.46472835540771 2.158638715744019 14.44769763946533 2.098642587661743 14.41435623168945 L -0.1943174451589584 13.1399564743042 C -0.3847674429416656 13.03410625457764 -0.4554674327373505 12.79529571533203 -0.353337436914444 12.60283660888672 L 6.433742523193359 -0.1874938607215881 C 6.484092712402344 -0.2823838591575623 6.570492744445801 -0.3530338704586029 6.673492431640625 -0.3835338652133942 C 6.710699558258057 -0.3945561349391937 6.748960971832275 -0.4000045657157898 6.787063598632813 -0.4000045657157898 C 6.854430198669434 -0.4000045657157898 6.92133903503418 -0.3829901814460754 6.981322765350342 -0.349673867225647 L 9.275362968444824 0.9246161580085754 C 9.466022491455078 1.030526161193848 9.536702156066895 1.269656181335449 9.434232711791992 1.462196111679077 L 9.315212249755859 1.685856103897095 C 9.141902923583984 2.012046098709106 9.128942489624023 2.166966199874878 9.242362976074219 2.558056116104126 C 9.420242309570313 3.173306226730347 9.894532203674316 3.555316209793091 10.48023223876953 3.555316209793091 C 10.62011241912842 3.555316209793091 10.76379299163818 3.533276081085205 10.90730285644531 3.489816188812256 C 11.28406238555908 3.375546216964722 11.40235233306885 3.281186103820801 11.57329273223877 2.95849609375 L 11.69233226776123 2.734146118164063 C 11.74268245697021 2.639256238937378 11.82910251617432 2.568596124649048 11.93210220336914 2.538096189498901 C 11.96930408477783 2.527081251144409 12.00755500793457 2.521636724472046 12.04565143585205 2.521636724472046 C 12.1130428314209 2.521636724472046 12.17997741699219 2.538660764694214 12.23997211456299 2.571996212005615 L 14.53304290771484 3.846276044845581 C 14.72351264953613 3.952126026153564 14.79421234130859 4.190946102142334 14.69207286834717 4.383426189422607 L 7.904022693634033 17.17408561706543 C 7.853662490844727 17.26897621154785 7.767242431640625 17.33962631225586 7.664242744445801 17.37012672424316 C 7.627047061920166 17.38113594055176 7.588798999786377 17.38657760620117 7.55070972442627 17.38657760620117 Z M 6.408865928649902 15.31475830078125 L 7.188701629638672 15.74849319458008 L 10.77518177032471 8.990462303161621 L 10.0993127822876 8.615165710449219 C 9.965417861938477 8.540818214416504 9.89067268371582 8.400769233703613 9.893501281738281 8.257270812988281 C 9.861734390258789 8.277854919433594 9.826934814453125 8.294002532958984 9.789982795715332 8.304986000061035 C 9.752653121948242 8.316082000732422 9.714262008666992 8.321565628051758 9.676024436950684 8.321565628051758 C 9.60870361328125 8.321565628051758 9.541831970214844 8.304577827453613 9.481882095336914 8.271306037902832 L 8.244022369384766 7.584256172180176 C 8.053292274475098 7.478395938873291 7.982552528381348 7.239226341247559 8.085002899169922 7.046646118164063 L 8.323042869567871 6.59920597076416 C 8.373472213745117 6.504426002502441 8.459882736206055 6.433886051177979 8.56284236907959 6.40346622467041 C 8.5999755859375 6.392495155334473 8.638139724731445 6.387073993682861 8.67616081237793 6.387073993682861 C 8.743561744689941 6.387073993682861 8.810516357421875 6.404108047485352 8.870512962341309 6.437456130981445 L 10.10676288604736 7.124616146087646 C 10.24073123931885 7.199079990386963 10.31546020507813 7.339363098144531 10.31241512298584 7.483024120330811 C 10.34470748901367 7.461909294128418 10.38016796112061 7.445391654968262 10.4178524017334 7.434246063232422 C 10.45502185821533 7.423253059387207 10.493239402771 7.417819023132324 10.53129863739014 7.417819023132324 C 10.59869480133057 7.417819023132324 10.66563034057617 7.434844493865967 10.72562217712402 7.468185901641846 L 11.38784599304199 7.836228847503662 L 13.12687015533447 4.559484004974365 L 12.34359741210938 4.12441873550415 C 12.0800838470459 4.41260290145874 11.75072193145752 4.601278305053711 11.28054237365723 4.743746280670166 C 11.01880264282227 4.823066234588623 10.75196266174316 4.863286018371582 10.48745250701904 4.863286018371582 C 9.314702987670898 4.863306045532227 8.336892127990723 4.102606296539307 7.996362686157227 2.925306081771851 C 7.856458187103271 2.443433046340942 7.833141803741455 2.057645082473755 7.929479598999023 1.671848893165588 L 7.149499893188477 1.238401889801025 L 5.411073684692383 4.514820098876953 L 6.085972785949707 4.890046119689941 C 6.220143795013428 4.96464204788208 6.294877052307129 5.105247020721436 6.291571140289307 5.249142169952393 C 6.323797225952148 5.228084564208984 6.359187126159668 5.21159839630127 6.396782398223877 5.200466156005859 C 6.433994770050049 5.189443588256836 6.472257137298584 5.183995246887207 6.510363578796387 5.183995246887207 C 6.577701091766357 5.183995246887207 6.644583225250244 5.200995445251465 6.704542636871338 5.234286308288574 L 7.941982746124268 5.92133617401123 C 8.132462501525879 6.02708625793457 8.203272819519043 6.265836238861084 8.101252555847168 6.458346366882324 L 7.863962650299072 6.906116008758545 C 7.813642501831055 7.001066207885742 7.727242469787598 7.071775913238525 7.624222755432129 7.102315902709961 C 7.586979866027832 7.113356590270996 7.548683643341064 7.118813991546631 7.510541439056396 7.118813991546631 C 7.443175792694092 7.118813991546631 7.376262187957764 7.101802349090576 7.316282749176025 7.068486213684082 L 6.078632354736328 6.380996227264404 C 5.944619655609131 6.306558609008789 5.869875431060791 6.166285991668701 5.872890949249268 6.022630214691162 C 5.84086275100708 6.043483734130859 5.80573034286499 6.059824466705322 5.768412590026855 6.070896148681641 C 5.73114538192749 6.081953048706055 5.69282341003418 6.087417125701904 5.654655933380127 6.087418079376221 C 5.587263584136963 6.087420463562012 5.520325660705566 6.070391178131104 5.46033239364624 6.037045955657959 L 4.79811954498291 5.669009208679199 L 1.211653113365173 12.42710208892822 L 1.99506950378418 12.86228370666504 C 2.259028673171997 12.57378959655762 2.588270664215088 12.38512706756592 3.058002471923828 12.24281597137451 C 3.319962501525879 12.1634464263916 3.586922645568848 12.12319660186768 3.851462602615356 12.12319660186768 C 3.851482629776001 12.12319660186768 3.851492643356323 12.12319660186768 3.851512670516968 12.12319660186768 C 5.023312568664551 12.12332630157471 6.000732421875 12.8840160369873 6.341602325439453 14.0611457824707 C 6.481340408325195 14.54374694824219 6.504745006561279 14.92962265014648 6.408865928649902 15.31475830078125 Z"/>
  </g>
</svg>
