<svg xmlns="http://www.w3.org/2000/svg" id="share" width="37.743" height="37.744" viewBox="0 0 37.743 37.744">
    <defs>
        <linearGradient id="linear-gradient" x1=".5" x2=".5" y2="1" gradientUnits="objectBoundingBox">
            <stop offset="0" stop-color="#7966fe"/>
            <stop offset="1" stop-color="#a27cf2"/>
        </linearGradient>
        <style>
            .cls-1{fill:url(#linear-gradient)}
        </style>
    </defs>
    <path id="Path_730" d="M4.332 116.8h29.094a4.328 4.328 0 0 0 4.325-4.325V99.112a1.179 1.179 0 0 0-2.359 0v13.368a1.969 1.969 0 0 1-1.966 1.966H4.332a1.968 1.968 0 0 1-1.966-1.966v-22.8a1.968 1.968 0 0 1 1.966-1.966h5.5a1.179 1.179 0 1 0 0-2.359h-5.5a4.328 4.328 0 0 0-4.324 4.322v22.8a4.328 4.328 0 0 0 4.324 4.323zm0 0" class="cls-1" transform="translate(-.008 -79.06)"/>
    <path id="Path_731" d="M1.188 25.164a1.18 1.18 0 0 0 1.05-.643l.02-.039A12.906 12.906 0 0 1 13.867 17.3h1.868v5.111a1.179 1.179 0 0 0 2.029.818l10.222-10.614a1.178 1.178 0 0 0 0-1.636L17.764.364a1.179 1.179 0 0 0-2.029.818v5.111h-.393A15.351 15.351 0 0 0 .009 21.626v2.359a1.181 1.181 0 0 0 1.179 1.179zm15.726-10.221h-3.047a15.243 15.243 0 0 0-11.4 5.065A13 13 0 0 1 15.342 8.652h1.573a1.18 1.18 0 0 0 1.179-1.179V4.107L25.5 11.8l-7.405 7.69v-3.368a1.18 1.18 0 0 0-1.179-1.179zm0 0" class="cls-1" transform="translate(9.427 -.001)"/>
</svg>
