<svg xmlns="http://www.w3.org/2000/svg" width="21.137" height="17.613" viewBox="0 0 21.137 17.613">
  <g id="Icon_feather-users" data-name="Icon feather-users" transform="translate(-0.75 -3.703)">
    <path id="Path_39977" data-name="Path 39977" d="M15.781,27.855V26.07a3.57,3.57,0,0,0-3.57-3.57H5.07A3.57,3.57,0,0,0,1.5,26.07v1.785" transform="translate(0 -7.289)" fill="none" stroke="#715ff2" stroke-linecap="round" stroke-linejoin="round" stroke-width="1.5"/>
    <path id="Path_39978" data-name="Path 39978" d="M14.641,8.07A3.57,3.57,0,1,1,11.07,4.5,3.57,3.57,0,0,1,14.641,8.07Z" transform="translate(-2.43)" fill="none" stroke="#715ff2" stroke-linecap="round" stroke-linejoin="round" stroke-width="1.5"/>
    <path id="Path_39979" data-name="Path 39979" d="M32.678,27.934V26.149A3.57,3.57,0,0,0,30,22.7" transform="translate(-11.541 -7.368)" fill="none" stroke="#715ff2" stroke-linecap="round" stroke-linejoin="round" stroke-width="1.5"/>
    <path id="Path_39980" data-name="Path 39980" d="M24,4.695a3.57,3.57,0,0,1,0,6.917" transform="translate(-9.111 -0.079)" fill="none" stroke="#715ff2" stroke-linecap="round" stroke-linejoin="round" stroke-width="1.5"/>
  </g>
</svg>
