<svg xmlns="http://www.w3.org/2000/svg" width="9.141" height="8.31" viewBox="0 0 9.141 8.31">
  <defs>
    <style>
      .cls-1 {
        fill: #fff;
      }
    </style>
  </defs>
  <path id="_-e-Thumbsup" data-name="-e-Thumbsup" class="cls-1" d="M2219,8258.309h1.662v-4.984H2219Zm9.141-4.569a.834.834,0,0,0-.832-.831h-2.618l.416-1.911v-.125a.865.865,0,0,0-.167-.456l-.457-.417-2.742,2.743a.7.7,0,0,0-.25.582v4.154a.833.833,0,0,0,.832.83h3.739a.818.818,0,0,0,.749-.5l1.247-2.949a.723.723,0,0,0,.041-.293v-.829Z" transform="translate(-2219 -8249.999)"/>
</svg>
