<svg xmlns="http://www.w3.org/2000/svg" width="9.142" height="8.31" viewBox="0 0 9.142 8.31">
  <defs>
    <style>
      .cls-1 {
        fill: #fff;
      }
    </style>
  </defs>
  <path id="_-e-Thumbsdown" data-name="-e-Thumbsdown" class="cls-1" d="M2516,8256h1.662v4.986H2516Zm9.142,4.571a.835.835,0,0,1-.831.832h-2.618l.416,1.909v.126a.867.867,0,0,1-.167.456l-.457.415-2.743-2.741a.7.7,0,0,1-.249-.582v-4.154a.833.833,0,0,1,.831-.832h3.74a.82.82,0,0,1,.748.5l1.247,2.95a.709.709,0,0,1,.042.29v.832Z" transform="translate(-2515.999 -8255.999)"/>
</svg>
