<svg xmlns="http://www.w3.org/2000/svg" width="272.428" height="398.813" viewBox="0 0 272.428 398.813">
    <path fill="#231e42" d="M255.382 398.814H14.89c-2.938-9.751-8.365-16.407-14.89-18.262L.115 18.639l.2-.072a32.592 32.592 0 0 0 5.864-2.75 17.428 17.428 0 0 0 4.3-3.656 17.979 17.979 0 0 0 2.947-5.095A33.993 33.993 0 0 0 15.232 0h240.636c2.937 10.072 8.086 14.29 16.56 18.55l-.115 361.987-.146.014a13.27 13.27 0 0 0-3.812.942 13.981 13.981 0 0 0-4.11 2.712 21.632 21.632 0 0 0-2.147 2.323 31.907 31.907 0 0 0-2.2 3.128 60.463 60.463 0 0 0-4.518 9.156z" opacity="0.63"/>
</svg>
