<svg xmlns="http://www.w3.org/2000/svg" width="19.564" height="19.564" viewBox="0 0 19.564 19.564">
    <defs>
        <style>
            .cls-3{stroke:#343a43;fill:none;stroke-linecap:round}
        </style>
    </defs>
    <g id="ticket" transform="translate(.15 .182)">
        <g id="Group_5789">
            <g id="Group_5788">
                <path id="Path_1137" fill="#343a43" stroke="#343a43" stroke-width="0.3px" d="M19.123 5.177a.376.376 0 0 0 0-.531L14.587.11a.376.376 0 0 0-.531 0 2.016 2.016 0 0 1-1.435.59 2.016 2.016 0 0 1-1.435-.59.376.376 0 0 0-.531 0L.11 10.655a.376.376 0 0 0 0 .531 2.032 2.032 0 0 1 0 2.87.376.376 0 0 0 0 .531l4.535 4.535a.376.376 0 0 0 .531 0 2.03 2.03 0 0 1 2.87 0 .376.376 0 0 0 .531 0L19.122 8.578a.376.376 0 0 0 0-.531 2.032 2.032 0 0 1 .001-2.87zm-.779 3.118L8.295 18.343a2.783 2.783 0 0 0-3.366 0L.889 14.3a2.787 2.787 0 0 0 0-3.366L10.938.889a2.76 2.76 0 0 0 1.683.567A2.76 2.76 0 0 0 14.3.889l4.04 4.039a2.787 2.787 0 0 0 .004 3.367z"/>
            </g>
        </g>
        <path id="Path_1138" fill="#343a43" d="M1.65 1.574h.033a.407.407 0 0 0 .056 0 .909.909 0 0 1 .89.907.407.407 0 0 0 .813 0A1.724 1.724 0 0 0 2.09.8V.407a.407.407 0 1 0-.813 0v.409A1.721 1.721 0 0 0 1.722 4.2a.908.908 0 1 1-.908.908.407.407 0 0 0-.813 0 1.724 1.724 0 0 0 1.276 1.663v.445a.407.407 0 1 0 .813 0V6.79a1.721 1.721 0 0 0-.368-3.4.908.908 0 0 1-.072-1.816zm0 0" transform="rotate(44.03 -3.093 16.022)"/>
        <path id="Line_4" d="M0 0L1.194 1.194" class="cls-3" transform="translate(9.02 3.051)"/>
        <path id="Line_5" d="M0 0L2.387 2.387" class="cls-3" transform="translate(11.407 5.439)"/>
        <path id="Line_6" d="M0 0L1.194 1.194" class="cls-3" transform="translate(14.988 9.02)"/>
    </g>
</svg>
