<svg id="Forma_1" data-name="Forma 1" xmlns="http://www.w3.org/2000/svg" width="17.815" height="17.829" viewBox="0 0 17.815 17.829">
  <defs>
    <style>
      .cls-1 {
        fill: #343a43;
      }
    </style>
  </defs>
  <path id="clock" class="cls-1" d="M0,8.915a8.907,8.907,0,1,1,8.907,8.915A8.916,8.916,0,0,1,0,8.915Zm1.246,0A7.661,7.661,0,1,0,8.907,1.247,7.676,7.676,0,0,0,1.246,8.915ZM8.492,9.962a.624.624,0,0,1-.631-.631v-4.3a.631.631,0,1,1,1.261,0V8.7h2.338a.631.631,0,0,1,0,1.262Z"/>
  <path id="Stroke_Effect" data-name="Stroke Effect" class="cls-1" d="M0,8.915a8.907,8.907,0,1,1,8.907,8.915A8.916,8.916,0,0,1,0,8.915Zm1.246,0A7.661,7.661,0,1,0,8.907,1.247,7.676,7.676,0,0,0,1.246,8.915ZM8.492,9.962a.624.624,0,0,1-.631-.631v-4.3a.631.631,0,1,1,1.261,0V8.7h2.338a.631.631,0,0,1,0,1.262Z"/>
</svg>
