<svg xmlns="http://www.w3.org/2000/svg" width="16.486" height="16.458" viewBox="0 0 16.486 16.458">
    <defs>
        <style>
            .cls-3{stroke:#fff;fill:none;stroke-linecap:round}
        </style>
    </defs>
    <g id="ticket" transform="translate(.178 .178)">
        <g id="Group_5789">
            <g id="Group_5788">
                <path id="Path_1137" fill="#fff" stroke="#fff" stroke-width="0.3px" d="M16.038 4.342a.315.315 0 0 0 0-.446l-3.8-3.8a.315.315 0 0 0-.446 0 1.691 1.691 0 0 1-1.2.5 1.691 1.691 0 0 1-1.2-.5.315.315 0 0 0-.446 0L.093 8.936a.315.315 0 0 0 0 .446 1.7 1.7 0 0 1 0 2.407.315.315 0 0 0 0 .446l3.8 3.8a.315.315 0 0 0 .446 0 1.7 1.7 0 0 1 2.407 0 .315.315 0 0 0 .446 0l8.843-8.843a.315.315 0 0 0 0-.446 1.7 1.7 0 0 1 .003-2.404zm-.653 2.615l-8.428 8.427a2.334 2.334 0 0 0-2.823 0L.746 12a2.338 2.338 0 0 0 0-2.823L9.174.746a2.315 2.315 0 0 0 1.412.475A2.315 2.315 0 0 0 12 .746l3.388 3.388a2.337 2.337 0 0 0-.004 2.823z"/>
            </g>
        </g>
        <path id="Path_1138" fill="#fff" d="M1.384 1.32h.028a.342.342 0 0 0 .047 0 .762.762 0 0 1 .747.761.341.341 0 0 0 .682 0A1.446 1.446 0 0 0 1.753.669V.341a.341.341 0 1 0-.682 0v.343a1.444 1.444 0 0 0 .373 2.838.762.762 0 1 1-.762.762.341.341 0 1 0-.682 0 1.446 1.446 0 0 0 1.071 1.395v.374a.341.341 0 1 0 .682 0v-.358a1.444 1.444 0 0 0-.309-2.854.761.761 0 0 1-.06-1.521zm0 0" transform="rotate(44.03 -2.594 13.437)"/>
        <path id="Line_4" d="M0 0L1.001 1.001" class="cls-3" transform="translate(7.564 2.559)"/>
        <path id="Line_5" d="M0 0L2.002 2.002" class="cls-3" transform="translate(9.567 4.561)"/>
        <path id="Line_6" d="M0 0L1.001 1.001" class="cls-3" transform="translate(12.57 7.565)"/>
    </g>
</svg>
