<svg xmlns="http://www.w3.org/2000/svg" width="45.492" height="50.332" viewBox="0 0 45.492 50.332">
  <g id="withdrawal_1_" data-name="withdrawal (1)" transform="translate(-0.5)">
    <path id="Path_101264" data-name="Path 101264" d="M129.952,208.623h2.42a3.872,3.872,0,0,0,7.743,0v-2.9a.968.968,0,1,1,1.936,0v5.323a1.452,1.452,0,1,0,2.9,0v-2.42h2.42a1.452,1.452,0,0,0,0-2.9h-2.42a3.872,3.872,0,0,0-7.743,0v2.9a.968.968,0,0,1-1.936,0V203.3a1.452,1.452,0,1,0-2.9,0v2.42h-2.42a1.452,1.452,0,1,0,0,2.9Zm0,0" transform="translate(-115.417 -182.005)" fill="#715ff2"/>
    <path id="Path_101265" data-name="Path 101265" d="M139.464,339.691a1.452,1.452,0,0,0-1.452,1.452v3.61a4.86,4.86,0,0,0-3.165,3.165H124.722a4.86,4.86,0,0,0-3.165-3.165v-3.61a1.452,1.452,0,1,0-2.9,0v4.84a1.452,1.452,0,0,0,1.452,1.452,1.938,1.938,0,0,1,1.936,1.936,1.452,1.452,0,0,0,1.452,1.452h12.583a1.452,1.452,0,0,0,1.452-1.452,1.938,1.938,0,0,1,1.936-1.936,1.452,1.452,0,0,0,1.452-1.452v-4.84a1.452,1.452,0,0,0-1.452-1.452Zm0,0" transform="translate(-106.538 -306.298)" fill="#715ff2"/>
    <path id="Path_101266" data-name="Path 101266" d="M39.459,0H7.034a6.533,6.533,0,0,0-.726,13.026V48.88A1.452,1.452,0,0,0,7.76,50.332H38.733a1.452,1.452,0,0,0,1.452-1.452V13.026A6.533,6.533,0,0,0,39.459,0ZM37.281,47.428H9.212V8.227h2.9v7.26a1.452,1.452,0,0,0,2.9,0V8.227H31.474v7.26a1.452,1.452,0,1,0,2.9,0V8.227h2.9ZM42.025,9.1a3.6,3.6,0,0,1-1.841.991V6.775a1.452,1.452,0,0,0-1.452-1.452H7.76A1.452,1.452,0,0,0,6.308,6.775v3.315A3.63,3.63,0,0,1,7.034,2.9H39.459a3.629,3.629,0,0,1,2.566,6.2Zm0,0" transform="translate(0 0)" fill="#715ff2"/>
  </g>
</svg>
